<svg width="333" height="272" viewBox="0 0 333 272" fill="none" xmlns="http://www.w3.org/2000/svg">
<path d="M105.427 19.5583L141.716 19.0516C142.942 19.0345 144.055 19.7647 144.527 20.8959L240.241 250.243L203.304 250.243L105.427 19.5583Z" fill="currentColor"/>
<path d="M105.427 19.5583L141.716 19.0516C142.942 19.0345 144.055 19.7647 144.527 20.8959L240.241 250.243L203.304 250.243L105.427 19.5583Z" fill="currentColor"/>
<path d="M105.427 19.5583L141.716 19.0516C142.942 19.0345 144.055 19.7647 144.527 20.8959L240.241 250.243L203.304 250.243L105.427 19.5583Z" fill="currentColor"/>
<path d="M105.427 19.5583L141.716 19.0516C142.942 19.0345 144.055 19.7647 144.527 20.8959L240.241 250.243L203.304 250.243L105.427 19.5583Z" fill="currentColor"/>
<path d="M69.5473 177.045L76.1826 140.772H142.766C143.968 140.772 145.053 141.489 145.525 142.594L160.23 177.045H69.5473Z" fill="currentColor"/>
<path d="M69.5473 177.045L76.1826 140.772H142.766C143.968 140.772 145.053 141.489 145.525 142.594L160.23 177.045H69.5473Z" fill="currentColor"/>
<path d="M69.5473 177.045L76.1826 140.772H142.766C143.968 140.772 145.053 141.489 145.525 142.594L160.23 177.045H69.5473Z" fill="currentColor"/>
<path d="M69.5473 177.045L76.1826 140.772H142.766C143.968 140.772 145.053 141.489 145.525 142.594L160.23 177.045H69.5473Z" fill="currentColor"/>
<path d="M37.8085 249.361L1.53556 249.361L94.4849 20.6179L114.285 71.2192C114.672 72.206 114.65 73.3057 114.226 74.2769L37.8085 249.361Z" fill="currentColor"/>
<path d="M37.8085 249.361L1.53556 249.361L94.4849 20.6179L114.285 71.2192C114.672 72.206 114.65 73.3057 114.226 74.2769L37.8085 249.361Z" fill="currentColor"/>
<path d="M37.8085 249.361L1.53556 249.361L94.4849 20.6179L114.285 71.2192C114.672 72.206 114.65 73.3057 114.226 74.2769L37.8085 249.361Z" fill="currentColor"/>
<path d="M37.8085 249.361L1.53556 249.361L94.4849 20.6179L114.285 71.2192C114.672 72.206 114.65 73.3057 114.226 74.2769L37.8085 249.361Z" fill="currentColor"/>
<path d="M204.035 140.557L231.79 118.101L332.316 249.11L287.147 249.11C286.204 249.11 285.316 248.666 284.749 247.913L204.035 140.557Z" fill="currentColor"/>
<path d="M204.035 140.557L231.79 118.101L332.316 249.11L287.147 249.11C286.204 249.11 285.316 248.666 284.749 247.913L204.035 140.557Z" fill="currentColor"/>
<path d="M204.035 140.557L231.79 118.101L332.316 249.11L287.147 249.11C286.204 249.11 285.316 248.666 284.749 247.913L204.035 140.557Z" fill="currentColor"/>
<path d="M204.035 140.557L231.79 118.101L332.316 249.11L287.147 249.11C286.204 249.11 285.316 248.666 284.749 247.913L204.035 140.557Z" fill="currentColor"/>
<path d="M233.507 156.78L204.035 140.911L281.784 20.0818C282.336 19.2237 283.287 18.7051 284.307 18.7051L323.166 18.7048L233.507 156.78Z" fill="currentColor"/>
<path d="M233.507 156.78L204.035 140.911L281.784 20.0818C282.336 19.2237 283.287 18.7051 284.307 18.7051L323.166 18.7048L233.507 156.78Z" fill="currentColor"/>
<path d="M233.507 156.78L204.035 140.911L281.784 20.0818C282.336 19.2237 283.287 18.7051 284.307 18.7051L323.166 18.7048L233.507 156.78Z" fill="currentColor"/>
<path d="M233.507 156.78L204.035 140.911L281.784 20.0818C282.336 19.2237 283.287 18.7051 284.307 18.7051L323.166 18.7048L233.507 156.78Z" fill="currentColor"/>
</svg>
