<svg width="392" height="132" viewBox="0 0 392 132" fill="none" xmlns="http://www.w3.org/2000/svg">
<g id="Aleksi Koivu">
<g id="Koivu">
<path id="K-1" d="M247.5 26C247.667 55.8333 245.5 115.5 240.5 120.5" stroke="black" stroke-width="8" stroke-linecap="round"/>
<path id="K-2" d="M289.5 41.5C296.5 49.5 252 124 236 93.5C251 97 281 135.5 287 107.5" stroke="black" stroke-width="8" stroke-linecap="round" stroke-linejoin="round"/>
<path id="K-o" d="M287 98C287 94 296.667 92.6667 301.5 92.5C302.7 92.4355 303.667 94.8065 304 96C305 101.667 305.6 114.2 300 119C293 125 287 103 287 98Z" stroke="black" stroke-width="8" stroke-linecap="round"/>
<path id="K-i" d="M313.5 93C314 100.833 315.7 117 318.5 119" stroke="black" stroke-width="8" stroke-linecap="round"/>
<path id="K-vu" d="M323 84C328 94.8334 338.5 116.5 340.5 116.5C343 116.5 350.5 89.5 351.5 89.5C352.5 89.5 354.175 121.162 360.5 118C367.5 114.5 378.5 86 376 84C373.5 82 385 121.5 387.5 118" stroke="black" stroke-width="8" stroke-linecap="round"/>
<path id="K-dot" d="M311.087 80.0523L311.506 79.7955C312.556 79.1527 313.152 77.9721 313.047 76.7459L313.019 76.4233C312.963 75.7712 312.65 75.1682 312.149 74.7468L311.669 74.3432C311.005 73.7841 310.031 73.7987 309.383 74.3773V74.3773C309.038 74.6857 308.83 75.1185 308.804 75.5806L308.618 78.8889C308.593 79.3334 308.779 79.7636 309.12 80.0502V80.0502C309.53 80.3951 310.099 80.4788 310.591 80.2665L311.087 80.0523ZM311.087 80.0523C310.97 79.3427 310.904 78.7382 310.872 78.2325C310.802 77.1301 311.816 76.5761 312.843 76.9836V76.9836" stroke="black" stroke-width="4"/>
</g>
<g id="Aleksi">
<path id="A" d="M4 128C44.5 121 73.5 21.5 76 4C78.5 32.5 61 107 65.5 128" stroke="black" stroke-width="8" stroke-linecap="round" stroke-linejoin="round"/>
<path id="A-k" d="M142.5 18C142.333 47.3333 141 107.5 137 113.5M163 64.5C154.167 74.1667 135.7 92.9 132.5 90.5C128.5 87.5 166 107.5 167.5 101.5" stroke="black" stroke-width="8" stroke-linecap="round"/>
<path id="A-le" d="M30.5428 108.526C28.3482 108.779 26.7737 110.762 27.0262 112.957C27.2787 115.152 29.2625 116.726 31.4572 116.474L30.5428 108.526ZM100.5 12L104.486 12.3362C104.662 10.2486 103.197 8.37881 101.128 8.04967C99.0595 7.72054 97.087 9.04355 96.6066 11.0827L100.5 12ZM135.176 86.4142C137.338 86.8693 139.459 85.4858 139.914 83.324C140.369 81.1623 138.986 79.0409 136.824 78.5858L135.176 86.4142ZM31.4572 116.474C61.1825 113.054 78.7659 97.3776 89.1792 77.2102C99.4462 57.3258 102.732 33.1289 104.486 12.3362L96.5142 11.6638C94.7678 32.3711 91.5538 55.1742 82.0708 73.5398C72.7341 91.6224 57.3175 105.446 30.5428 108.526L31.4572 116.474ZM96.6066 11.0827C92.8463 27.043 87.4795 51.5425 83.6003 73.1817C81.6623 83.9919 80.0824 94.1607 79.2657 102.22C78.8581 106.243 78.6313 109.826 78.6598 112.742C78.674 114.2 78.7523 115.561 78.923 116.765C79.0865 117.918 79.3675 119.179 79.9223 120.289L87.0777 116.711C87.0825 116.721 86.9565 116.437 86.8438 115.642C86.7385 114.899 86.6715 113.912 86.6594 112.664C86.6351 110.169 86.831 106.914 87.2249 103.027C88.0113 95.2664 89.5502 85.329 91.4747 74.5933C95.3205 53.1408 100.654 28.7903 104.393 12.9173L96.6066 11.0827ZM79.9223 120.289C80.6405 121.725 81.7741 122.893 83.2945 123.574C84.7471 124.226 86.2481 124.298 87.5541 124.138C90.0645 123.832 92.6791 122.568 95.0567 121.075C99.9313 118.015 105.456 112.928 110.198 107.509C114.919 102.113 119.204 95.9999 121.314 90.7388C122.343 88.1742 123.084 85.2591 122.594 82.5428C122.333 81.0991 121.713 79.6666 120.584 78.4688C119.462 77.2783 118.043 76.5384 116.531 76.1351L114.469 83.8649C114.832 83.9616 114.847 84.0459 114.762 83.956C114.671 83.8588 114.692 83.8033 114.721 83.965C114.81 84.4596 114.728 85.6695 113.889 87.7612C112.264 91.8126 108.644 97.1365 104.177 102.241C99.7311 107.322 94.7875 111.798 90.8027 114.3C88.7506 115.588 87.3378 116.105 86.5846 116.197C86.2588 116.237 86.3188 116.163 86.5666 116.274C86.8821 116.416 87.047 116.65 87.0777 116.711L79.9223 120.289ZM116.531 76.1351C110.531 74.535 105.814 77.8252 102.893 82.006C100.003 86.1426 98.2583 91.8184 97.6483 97.4438C97.0365 103.086 97.5097 109.192 99.5564 114.263C101.629 119.399 105.547 123.896 111.842 124.946L113.158 117.054C110.453 116.604 108.371 114.726 106.975 111.268C105.553 107.745 105.089 103.039 105.602 98.3062C106.117 93.5566 107.56 89.2949 109.451 86.5877C111.311 83.9248 112.969 83.465 114.469 83.8649L116.531 76.1351ZM111.842 124.946C114.918 125.458 117.744 124.991 120.217 123.629C122.618 122.307 124.422 120.29 125.805 118.115C128.509 113.863 130.112 108.166 131.329 103.05C132.626 97.5951 133.477 92.8882 134.649 89.3515C135.232 87.59 135.734 86.6674 136.061 86.2786C136.219 86.0911 135.802 86.546 135.176 86.4142L136.824 78.5858C133.823 77.954 131.453 79.3307 129.94 81.1276C128.598 82.7232 127.713 84.8475 127.054 86.836C125.742 90.7993 124.686 96.4049 123.546 101.2C122.325 106.334 120.96 110.825 119.054 113.823C118.132 115.273 117.221 116.146 116.359 116.621C115.569 117.056 114.582 117.292 113.158 117.054L111.842 124.946Z" fill="black"/>
<path id="A-s" d="M185.5 72.5C182 71.3333 173.6 70.1 168 74.5C161 80 191.5 100 182 115C172.5 130 157 101 167 95.5" stroke="black" stroke-width="8" stroke-linecap="round"/>
<path id="A-i" d="M197.5 80C195 91.3333 191 115.2 195 120" stroke="black" stroke-width="8" stroke-linecap="round"/>
<path id="A-dot" d="M199.087 70.0523L199.506 69.7955C200.556 69.1527 201.152 67.9721 201.047 66.7459L201.019 66.4233C200.963 65.7712 200.65 65.1682 200.149 64.7468L199.669 64.3432C199.005 63.7841 198.031 63.7987 197.383 64.3773V64.3773C197.038 64.6857 196.83 65.1185 196.804 65.5806L196.618 68.8889C196.593 69.3334 196.779 69.7636 197.12 70.0502V70.0502C197.53 70.3951 198.099 70.4788 198.591 70.2665L199.087 70.0523ZM199.087 70.0523C198.97 69.3427 198.904 68.7382 198.872 68.2325C198.802 67.1301 199.816 66.5761 200.843 66.9836V66.9836" stroke="black" stroke-width="4"/>
</g>
</g>
</svg>
