<svg width="344" height="272" viewBox="0 0 344 272" fill="none" xmlns="http://www.w3.org/2000/svg">
<path d="M105.427 20.5583L141.716 20.0516C142.942 20.0345 144.055 20.7647 144.527 21.8959L240.241 251.243L203.304 251.243L105.427 20.5583Z" fill="currentColor"/>
<path d="M105.427 20.5583L141.716 20.0516C142.942 20.0345 144.055 20.7647 144.527 21.8959L240.241 251.243L203.304 251.243L105.427 20.5583Z" fill="currentColor"/>
<path d="M105.427 20.5583L141.716 20.0516C142.942 20.0345 144.055 20.7647 144.527 21.8959L240.241 251.243L203.304 251.243L105.427 20.5583Z" fill="currentColor"/>
<path d="M105.427 20.5583L141.716 20.0516C142.942 20.0345 144.055 20.7647 144.527 21.8959L240.241 251.243L203.304 251.243L105.427 20.5583Z" fill="currentColor"/>
<path d="M60 179.273L66.6353 143H133.219C134.42 143 135.506 143.717 135.978 144.822L150.682 179.273H60Z" fill="currentColor"/>
<path d="M60 179.273L66.6353 143H133.219C134.42 143 135.506 143.717 135.978 144.822L150.682 179.273H60Z" fill="currentColor"/>
<path d="M60 179.273L66.6353 143H133.219C134.42 143 135.506 143.717 135.978 144.822L150.682 179.273H60Z" fill="currentColor"/>
<path d="M60 179.273L66.6353 143H133.219C134.42 143 135.506 143.717 135.978 144.822L150.682 179.273H60Z" fill="currentColor"/>
<path d="M37.4974 251.112L1.53556 250.361L88.952 34.9755L109.582 83.344C110.015 84.3587 110.009 85.5071 109.567 86.5176L37.4974 251.112Z" fill="currentColor"/>
<path d="M37.4974 251.112L1.53556 250.361L88.952 34.9755L109.582 83.344C110.015 84.3587 110.009 85.5071 109.567 86.5176L37.4974 251.112Z" fill="currentColor"/>
<path d="M37.4974 251.112L1.53556 250.361L88.952 34.9755L109.582 83.344C110.015 84.3587 110.009 85.5071 109.567 86.5176L37.4974 251.112Z" fill="currentColor"/>
<path d="M37.4974 251.112L1.53556 250.361L88.952 34.9755L109.582 83.344C110.015 84.3587 110.009 85.5071 109.567 86.5176L37.4974 251.112Z" fill="currentColor"/>
<path d="M215.618 140.557L243.373 118.101L343.899 249.11L298.73 249.11C297.787 249.11 296.899 248.667 296.332 247.913L215.618 140.557Z" fill="currentColor"/>
<path d="M215.618 140.557L243.373 118.101L343.899 249.11L298.73 249.11C297.787 249.11 296.899 248.667 296.332 247.913L215.618 140.557Z" fill="currentColor"/>
<path d="M215.618 140.557L243.373 118.101L343.899 249.11L298.73 249.11C297.787 249.11 296.899 248.667 296.332 247.913L215.618 140.557Z" fill="currentColor"/>
<path d="M215.618 140.557L243.373 118.101L343.899 249.11L298.73 249.11C297.787 249.11 296.899 248.667 296.332 247.913L215.618 140.557Z" fill="currentColor"/>
<path d="M245.09 156.781L215.618 140.911L293.367 20.0819C293.919 19.2238 294.87 18.7052 295.89 18.7052L334.749 18.7049L245.09 156.781Z" fill="currentColor"/>
<path d="M245.09 156.781L215.618 140.911L293.367 20.0819C293.919 19.2238 294.87 18.7052 295.89 18.7052L334.749 18.7049L245.09 156.781Z" fill="currentColor"/>
<path d="M245.09 156.781L215.618 140.911L293.367 20.0819C293.919 19.2238 294.87 18.7052 295.89 18.7052L334.749 18.7049L245.09 156.781Z" fill="currentColor"/>
<path d="M245.09 156.781L215.618 140.911L293.367 20.0819C293.919 19.2238 294.87 18.7052 295.89 18.7052L334.749 18.7049L245.09 156.781Z" fill="currentColor"/>
</svg>
