<svg xmlns="http://www.w3.org/2000/svg" width="380" height="126" fill="none" viewBox="0 0 380 126">
  <g id="Aleksi Koivu">
    <g id="Aleksi">
      <path id="A-a" stroke="currentColor" stroke-width="8" d="M8.385 117.5c-14.5 7.5 11.2-5.5 16-11.5 4.8-6 17.167-20.667 21-27l10-22 10.803-31.419c.133-.387.25-.776.354-1.172a843.936 843.936 0 0 1 2.21-8.257c2.431-8.89 4.665-8.384 4.107.816l-.94 15.524c-.021.339-.052.67-.096 1.006-.263 2-1.363 10.08-3.936 25.502-3.002 18-4.505 35.552-4.664 42-.172 7-.002 16.333-.336 20.5-.333 4.167 1.196-32 1.196-32"/>
      <path id="A-le" stroke="currentColor" stroke-width="8" d="m28.885 100 32.452-9.68a16 16 0 0 0 5.038-2.542l11.006-8.27c1.33-1 2.495-2.2 3.455-3.558l1.304-1.845a16 16 0 0 0 2.542-5.717L89.387 47.5l3.972-20.85.057-.285c.441-2.098 5.848-27.78 2.969-13.865-2.683 12.967-14.96 71.118-17.526 83.27a15.729 15.729 0 0 0-.287 4.543l.507 6.336a6.329 6.329 0 0 0 8.742 5.337l6.645-2.769a15.983 15.983 0 0 0 5.16-3.455l4.723-4.723a16.027 16.027 0 0 0 1.871-2.25l3.896-5.666c.513-.747.962-1.537 1.342-2.36l1.827-3.958a9.523 9.523 0 0 0 .792-2.73l.493-3.693a3.73 3.73 0 0 0-5.653-3.67l-2.294 1.412a8.077 8.077 0 0 0-3.235 3.803l-1.76 4.274a16.038 16.038 0 0 0-1.029 3.723l-.535 3.58a15.953 15.953 0 0 0-.177 2.368v10.846a7.954 7.954 0 0 0 4.726 7.271l.432.192a9.5 9.5 0 0 0 3.859.819h.9c1.38 0 2.751-.222 4.059-.659l.312-.104a11.84 11.84 0 0 0 5.957-4.443 11.86 11.86 0 0 0 1.787-3.919l.688-2.755a16.13 16.13 0 0 1 .718-2.188l2.562-6.251.559-1.587a15.999 15.999 0 0 1 4.755-6.899l3.184-2.695"/>
      <path id="A-k" stroke="currentColor" stroke-width="8" d="m135.885 83.5 4.5-70.5-7.5 101 2.425-30.552a2 2 0 0 1 .858-1.488l13.527-9.33c.126-.086.242-.187.345-.3l9.845-10.83-24.701 25.634a2 2 0 0 0 .462 3.132L145.885 96l19.5 14.5"/>
      <path id="A-s" fill="currentColor" d="m171 109.5 1.789 3.578.223-.112.207-.138L171 109.5Zm2-18-3.497 1.943.11.198.132.184L173 91.5ZM166 81l3.578-1.789-.05-.1-.055-.096L166 81Zm10.172-7.781a4 4 0 1 0 6.656-4.438l-6.656 4.438Zm-1.754-4.944 1.149-3.83-1.149 3.83Zm-7.62 1.826-1.789-3.578 1.789 3.578Zm.447 13.39-3.578 1.788 3.578-1.789Zm2.073 2.563-2.499 3.124 2.499-3.124Zm7.43 13.314-3.846 1.099 3.846-1.1Zm-7.516 11.016 1.789 3.578-1.789-3.578Zm-3.863-39.253 2.828 2.829-2.828-2.829Zm-3.601 37.271-3.328 2.219 3.328-2.219Zm2.081-32.257-3.975.442 3.975-.442Zm-7.097 26.044-2.4 3.2 2.4-3.2Zm2.96 3.129-3.328 2.219 3.328-2.219Zm13.968 2.395 2.219 3.328-2.219-3.328Zm2.708-3.211-3.655-1.625 3.655 1.625Zm-23.589-4.746-1.604 3.664 1.604-3.664Zm3.187 1.858 2.4-3.2-2.4 3.2Zm-11.089-.949 6.298 2.755 3.207-7.329-6.299-2.756-3.206 7.33Zm8.689 4.149.766.575 4.8-6.4-.766-.575-4.8 6.4Zm2.798 2.723 2.056 3.084 6.656-4.438-2.055-3.083-6.657 4.437Zm14.637 6.425 1.768-.884-3.578-7.156-1.768.884 3.578 7.156Zm2.198-1.134 2.68-1.787-4.437-6.656-2.681 1.787 4.438 6.656Zm7.375-14.56-.603-2.11-7.693 2.197.604 2.112 7.692-2.198Zm-3.203-7.502-1.136-1.591-6.51 4.65 1.136 1.59 6.51-4.65Zm-.894-1.209-1.765-3.176-6.994 3.885 1.765 3.177 6.994-3.886Zm-5.674-7.856-1.245-2.49-7.156 3.578 1.245 2.49 7.156-3.578Zm-1.35-2.686L168.15 76.7l-6.946 3.97 1.323 2.316 6.946-3.97Zm-1.648-3.312-.058-.518-7.951.884.058.517 7.951-.883Zm.762-2.024 2.823-1.412-3.578-7.155-2.823 1.411 3.578 7.156Zm4.682-1.572 2.355.706 2.299-7.662-2.356-.707-2.298 7.663Zm2.355.706c.224.068.418.211.548.406l6.656-4.438a9.005 9.005 0 0 0-4.905-3.63l-2.299 7.662ZM172.542 72c.246 0 .491.036.727.107l2.298-7.663a10.525 10.525 0 0 0-3.025-.444v8Zm-1.132.267a2.531 2.531 0 0 1 1.132-.267v-8c-1.635 0-3.248.38-4.71 1.112l3.578 7.155Zm-3.213 1.693c.114-.114.246-.21.39-.281l-3.578-7.156a9.482 9.482 0 0 0-2.468 1.78l5.656 5.657Zm3.62 8.97a3.672 3.672 0 0 1-.994-1.229l-7.156 3.578a11.7 11.7 0 0 0 3.152 3.899l4.998-6.247Zm2.915 3.45a11.68 11.68 0 0 0-2.915-3.45l-4.998 6.248c.374.3.687.669.919 1.088l6.994-3.885Zm5.259 9.777a17.592 17.592 0 0 0-2.6-5.391l-6.51 4.65a9.586 9.586 0 0 1 1.417 2.939l7.693-2.198Zm.052 9.969a11.533 11.533 0 0 0 .551-7.857l-7.692 2.198a3.541 3.541 0 0 1-.169 2.41l7.31 3.249ZM166.623 115a9.835 9.835 0 0 0 4.398-1.038l-3.578-7.156a1.828 1.828 0 0 1-.82.194v8Zm1.144-39.815a1.5 1.5 0 0 1 .43-1.225l-5.656-5.657a9.5 9.5 0 0 0-2.725 7.766l7.951-.884Zm-9.327 35.436a9.833 9.833 0 0 0 8.183 4.379v-8a1.835 1.835 0 0 1-1.527-.817l-6.656 4.438Zm9.71-33.922a2.57 2.57 0 0 1-.325-.996l-7.951.883a10.58 10.58 0 0 0 1.33 4.082l6.946-3.969Zm-13.798 28.69a8.755 8.755 0 0 1 2.032 2.148l6.657-4.437a16.765 16.765 0 0 0-3.889-4.111l-4.8 6.4Zm21.547 5.652a11.535 11.535 0 0 0 4.144-4.915l-7.31-3.249a3.537 3.537 0 0 1-1.271 1.508l4.437 6.656Zm-24.704-7.621c.848.371 1.65.839 2.391 1.394l4.8-6.4a20.002 20.002 0 0 0-3.984-2.323l-3.207 7.329Z"/>
      <path id="A-i" stroke="currentColor" stroke-width="8" d="M189.5 79.017c1.793-9.41-.03-.345-.427 1.637a7.847 7.847 0 0 1-.181.724l-1.144 3.814a7.982 7.982 0 0 0-.314 1.685l-.934 12.14v4.001l-.5 4v2.021c0 .319.019.633.057.949.263 2.197 1.325 11.022.443 3.53"/>
      <path id="A-dot" stroke="currentColor" stroke-width="4" d="m193.237 64.052.42-.257a3.25 3.25 0 0 0 1.54-3.05l-.028-.322a2.47 2.47 0 0 0-.869-1.676l-.48-.404a1.746 1.746 0 0 0-2.866 1.237l-.185 3.309a1.414 1.414 0 0 0 1.972 1.378l.496-.215Zm0 0a18.644 18.644 0 0 1-.214-1.82c-.071-1.102.943-1.656 1.97-1.248"/>
    </g>
    <g id="Koivu">
      <path id="K1" stroke="currentColor" stroke-width="8" d="M244 19.096c-4.506-7.885-1.398-2.517.429.646a7.99 7.99 0 0 1 1.071 3.997v9.857l.5 8-.5 10.5-1.5 20.5-1.5 8.5-.5 4-1 15-.864 8.64a3.83 3.83 0 0 1-1.103 2.327l-.554.555a2.442 2.442 0 0 0-.643 2.321l.095.382a1.022 1.022 0 0 0 .993.775h.267a1.308 1.308 0 0 0 1.309-1.309v-.086c0-.67-.399-1.276-1.015-1.54L237 111.096"/>
      <path id="K-o" stroke="currentColor" stroke-linecap="round" stroke-width="8" d="M285.5 96.596v1.933a7.098 7.098 0 0 1-1.643 4.54v0c-.567.679-1 1.458-1.28 2.297l-.145.433a7.999 7.999 0 0 1-5.854 5.28l-1.38.307a8 8 0 0 1-5.976-1.026l-1.222-.764-6.5-5-7-5.5-18.882-17.5c-.006-.005-.006-.005 0 0v0c.287.257.594.485.89.681.936.621 1.889 1.243 2.657 2.064L243 88.438l.602.558a8 8 0 0 0 9.544.998l5.951-3.559a7.99 7.99 0 0 0 2.364-2.16l3.039-4.179 5.5-6.5 7-9 3-5 2.5-5 2.107-4.214a8.03 8.03 0 0 0 .606-1.637l1.287-5.149.809-3.642c.127-.57.191-1.152.191-1.736v-7.622m-2 66v-.88c0-.742.104-1.482.308-2.197l.313-1.094a8.005 8.005 0 0 1 1.182-2.453l.28-.391a8 8 0 0 1 3.7-2.84l.359-.135a7.997 7.997 0 0 1 2.809-.51h.602c1.887 0 3.697.75 5.031 2.084v0c.277.277.53.577.758.895l.668.935a8 8 0 0 1 1.49 4.65v.888c0 .696-.091 1.389-.27 2.061l-1.73 6.487-1.396 4.187a4.488 4.488 0 0 1-.252.609v0a4.646 4.646 0 0 1-5.744 2.289l-.231-.084a4.923 4.923 0 0 1-2.256-1.673L289 106.596l-1.17-1.95a7.92 7.92 0 0 1-.568-1.145l-.489-1.223a7.955 7.955 0 0 1-.417-1.402l-.856-4.28Z"/>
      <path id="K-i" stroke="currentColor" stroke-width="8" d="M310.5 87.096c-2.248-12.14.356 1.6.903 4.49.066.344.107.686.126 1.036l.471 8.474v.932c0 .378.027.757.08 1.131l.273 1.909c.098.683.281 1.345.551 1.98 1.182 2.787 4.328 10.171.596 1.048"/>
      <path id="K-vu" stroke="currentColor" stroke-width="8" d="M320.27 83.131c-4.149-10.602.202.47.907 2.263.064.163.129.317.2.478l1.893 4.26 4.5 9.5 3.476 6.082c.349.61.75 1.189 1.2 1.729l1.824 2.188c1.178 1.178 3.178.758 3.781-.795l2.219-5.705 2.234-4.095a12.01 12.01 0 0 0 1.137-2.961l2.825-11.837a.991.991 0 0 0 .027-.287l-.199-4.177c-.035-.739 1.027-.895 1.206-.178l3.77 17.035.794 5.56c.137.954.426 1.88.856 2.742l1.153 2.309a4.85 4.85 0 0 0 7.631 1.397l2.203-2.034a8.188 8.188 0 0 0 1.761-2.337l1.627-3.236c.468-.93.813-1.917 1.026-2.936l3.422-16.37a1.28 1.28 0 0 0 .027-.262v-.443c0-1.092 1.392-1.552 2.043-.676.122.164.198.36.218.563l.969 9.688.17 6.5-.17 4.5m0 0v6m0-6c.5-14.465 0 6 0 6m0-6c-.5 14.466 0 6 0 6"/>
      <path id="K-dot" stroke="currentColor" stroke-width="4" d="m303.5 69.596.393.295a3.25 3.25 0 0 0 3.403.307l.29-.144a2.468 2.468 0 0 0 1.237-1.427l.198-.595a1.744 1.744 0 0 0-2.207-2.207l-3.143 1.048a1.415 1.415 0 0 0-.553 2.342l.382.381Zm0 0a18.51 18.51 0 0 1 1.612-.87c.999-.472 1.888.266 1.888 1.37"/>
    </g>
  </g>
</svg>
