<svg xmlns="http://www.w3.org/2000/svg" width="378" height="126" fill="none" viewBox="0 0 378 126">
  <g id="Aleksi Koivu">
    <g id="Koivu">
      <path id="K-dot" stroke="currentColor" stroke-width="4" d="m303.5 69.596.393.295a3.25 3.25 0 0 0 3.403.307l.29-.144a2.468 2.468 0 0 0 1.237-1.427l.198-.595a1.744 1.744 0 0 0-2.207-2.207l-3.143 1.048a1.415 1.415 0 0 0-.553 2.342l.382.381Zm0 0a18.51 18.51 0 0 1 1.612-.87c.999-.472 1.888.266 1.888 1.37"/>
      <path id="K-u" stroke="currentColor" stroke-linecap="round" stroke-width="8" d="M373 110.404V102l.17-4.5L373 91l-.969-9.688a1.133 1.133 0 0 0-.218-.563v0c-.651-.877-2.043-.416-2.043.676v.443c0 .088-.009.175-.027.262l-3.422 16.37a11.99 11.99 0 0 1-1.026 2.936l-1.627 3.235a8.179 8.179 0 0 1-1.761 2.338l-2.203 2.034a4.85 4.85 0 0 1-6.485.086v0a4.848 4.848 0 0 1-1.146-1.483l-1.153-2.309a9.028 9.028 0 0 1-.856-2.743l-.794-5.56L347 81"/>
      <path id="K-v" fill="currentColor" d="m323.27 90.131-3.655 1.625.019.044.021.044 3.615-1.713Zm4.5 9.5-3.615 1.712.066.139.076.134 3.473-1.985Zm12.5 3.5-3.512-1.915-.123.226-.093.239 3.728 1.45Zm10.643-22.303a4 4 0 1 0-7.826-1.656l7.826 1.656Zm-7.279 15.084 3.913.828-3.913-.828Zm-12.388 9.802 3.473-1.984-3.473 1.984Zm3.024 3.917-3.073 2.561.116.139.129.129 2.828-2.829Zm3.781-.795-3.728-1.45 3.728 1.45Zm-16.874-23.442-3.723 1.463 3.723-1.463Zm.2.478 3.655-1.625-3.655 1.625Zm2.618-4.198a2142.624 2142.624 0 0 1-1.702-4.358l-.04-.104c-.066-.172.031.067.092.282.022.08.087.369.12.578-.041 1.3-3.483 4.495-6.855 3.29a7.566 7.566 0 0 1-.647-.898 6.018 6.018 0 0 1-.084-.168l-.048-.106-.016-.037-.011-.028.028.07.35.887c.656 1.664 1.919 4.878 2.272 5.775l7.446-2.926a8086.97 8086.97 0 0 0-2.636-6.696l-.045-.112-.029-.072-.019-.044a5.416 5.416 0 0 0-.133-.278 7.707 7.707 0 0 0-.648-.898c-3.372-1.206-6.814 1.99-6.855 3.29.033.21.098.497.12.578.031.109.061.194.063.2l.021.06.019.052.022.058.052.135c.168.433.677 1.738 1.713 4.385l7.45-2.915Zm-6.273 5.822 1.893 4.26 7.31-3.25-1.893-4.259-7.31 3.25Zm1.933 4.348 4.5 9.499 7.23-3.424-4.5-9.5-7.23 3.425Zm4.642 9.772 3.476 6.083 6.946-3.969-3.476-6.083-6.946 3.969Zm5.076 8.387 1.824 2.189 6.146-5.122-1.824-2.188-6.146 5.121Zm12.406.283 2.219-5.705-7.456-2.9-2.219 5.705 7.456 2.9Zm2.003-5.239 2.158-3.957-7.023-3.831-2.159 3.957 7.024 3.831Zm3.765-8.307 3.366-15.912-7.826-1.656-3.367 15.912 7.827 1.656Zm-1.607 4.35a15.991 15.991 0 0 0 1.607-4.35l-7.827-1.656a7.973 7.973 0 0 1-.803 2.175l7.023 3.831Zm-18.167 6.609c.465.813 1 1.584 1.6 2.304l6.146-5.121c-.3-.36-.568-.746-.8-1.152l-6.946 3.969Zm3.669 4.761c3.22 3.22 8.687 2.07 10.337-2.174l-7.456-2.9a1.693 1.693 0 0 1 2.775-.583l-5.656 5.657Zm-13.988-25.603c.087.22.174.428.268.64l7.31-3.25a9.17 9.17 0 0 1-.132-.316l-7.446 2.926Z"/>
      <path id="K-i" stroke="currentColor" stroke-width="8" d="M310.5 87.096c-2.248-12.14.356 1.6.903 4.49.066.344.107.686.126 1.036l.471 8.474v.932c0 .378.027.757.08 1.131l.273 1.909c.098.683.281 1.345.551 1.98 1.182 2.787 4.328 10.171.596 1.048"/>
      <path id="K-o" stroke="currentColor" stroke-linecap="round" stroke-width="8" d="M285.5 96.596v1.933a7.098 7.098 0 0 1-1.643 4.54v0c-.567.679-1 1.458-1.28 2.297l-.145.433a7.999 7.999 0 0 1-5.854 5.28l-1.38.307a8 8 0 0 1-5.976-1.026l-1.222-.764-6.5-5-7-5.5-18.882-17.5c-.006-.005-.006-.005 0 0v0c.287.257.594.485.89.681.936.621 1.889 1.243 2.657 2.064L243 88.438l.602.558a8 8 0 0 0 9.544.998l5.951-3.559a7.99 7.99 0 0 0 2.364-2.16l3.039-4.179 5.5-6.5 7-9 3-5 2.5-5 2.107-4.214a8.03 8.03 0 0 0 .606-1.637l1.287-5.149.809-3.642c.127-.57.191-1.152.191-1.736v-7.622m-2 66v-.88c0-.742.104-1.482.308-2.197l.313-1.094a8.005 8.005 0 0 1 1.182-2.453l.28-.391a8 8 0 0 1 3.7-2.84l.359-.135a7.997 7.997 0 0 1 2.809-.51h.602c1.887 0 3.697.75 5.031 2.084v0c.277.277.53.577.758.895l.668.935a8 8 0 0 1 1.49 4.65v.888c0 .696-.091 1.389-.27 2.061l-1.73 6.487-1.396 4.187a4.488 4.488 0 0 1-.252.609v0a4.646 4.646 0 0 1-5.744 2.289l-.231-.084a4.923 4.923 0 0 1-2.256-1.673L289 106.596l-1.17-1.95a7.92 7.92 0 0 1-.568-1.145l-.489-1.223a7.955 7.955 0 0 1-.417-1.402l-.856-4.28Z"/>
      <path id="K1" stroke="currentColor" stroke-width="8" d="M244 19.096c-4.506-7.885-1.398-2.517.429.646a7.99 7.99 0 0 1 1.071 3.997v9.857l.5 8-.5 10.5-1.5 20.5-1.5 8.5-.5 4-1 15-.717 7.167a7.78 7.78 0 0 1-2.329 4.814l-.877.849a.628.628 0 0 0-.125.169l-.062.124a.54.54 0 0 0 .483.781c.083 0 .166.019.241.057l.056.028a.804.804 0 0 0 1.123-.465l.178-.533c.019-.058.043-.114.07-.169l.027-.055a2.147 2.147 0 0 0 .074-1.759l-.642-1.604"/>
    </g>
    <g id="Aleksi">
      <path id="A-dot" stroke="currentColor" stroke-width="4" d="m193.237 64.052.42-.257a3.25 3.25 0 0 0 1.54-3.05l-.028-.322a2.47 2.47 0 0 0-.869-1.676l-.48-.404a1.746 1.746 0 0 0-2.866 1.237l-.185 3.309a1.414 1.414 0 0 0 1.972 1.378l.496-.215Zm0 0a18.644 18.644 0 0 1-.214-1.82c-.071-1.102.943-1.656 1.97-1.248"/>
      <path id="A-i" fill="currentColor" d="m186.5 99.018-3.988-.307-.012.153v.154h4Zm0 4 3.969.496.031-.247v-.249h-4Zm-.5 4-3.969-.497-.031.248v.249h4Zm-4 3.482a4 4 0 0 0 8 0h-8Zm5.748-25.308-3.832-1.15 3.832 1.15Zm1.325-4.538-3.922-.786 3.922.786Zm-.181.724-3.832-1.15 3.832 1.15Zm4.537-1.612c.445-2.337.677-3.581.76-4.073a5.85 5.85 0 0 0 .076-.583 3.937 3.937 0 0 0-.057-1.022 7.102 7.102 0 0 0-.196-.696c-.127-.297-.559-1.003-.891-1.384-.581-.487-2.103-1.12-2.999-1.187-.743.099-1.896.562-2.307.843-.656.51-.975 1.101-1.017 1.176-.184.323-.28.603-.292.636-.057.158-.092.29-.099.316-.015.052-.026.098-.034.128a32.2 32.2 0 0 0-.18.82c-.286 1.36-.845 4.144-1.042 5.128l7.844 1.572c.2-.997.751-3.738 1.027-5.054l.085-.4.034-.152c-.001.004-.006.027-.016.061a3.858 3.858 0 0 1-.087.277 4 4 0 0 1-.288.627c-.042.074-.361.663-1.016 1.174-.41.28-1.564.744-2.307.843-.896-.067-2.417-.7-2.998-1.187-.332-.381-.763-1.086-.891-1.383a7.398 7.398 0 0 1-.195-.695 4.072 4.072 0 0 1-.066-.604c-.006-.202.005-.358.008-.401.016-.22.051-.391.017-.19-.067.393-.28 1.544-.731 3.913l7.858 1.497Zm-8.369.463-1.144 3.814 7.663 2.298 1.144-3.813-7.663-2.3Zm-1.614 6.341-.934 12.14 7.976.614.934-12.14-7.976-.614Zm-.946 12.448v4h8v-4h-8Zm.031 3.503-.5 4 7.938.993.5-4-7.938-.993Zm-.531 4.497v3.482h8v-3.482h-8Zm1.916-22.975c-.247.823-.404 1.67-.47 2.527l7.976.614a4.03 4.03 0 0 1 .157-.843l-7.663-2.298Zm1.235-4.175a3.775 3.775 0 0 1-.091.36l7.663 2.3c.107-.358.198-.717.272-1.088l-7.844-1.572Z"/>
      <path id="A-i_2" fill="currentColor" d="m172.5 99.2-3.988-.308-.012.154v.153h4Zm0 3.999 3.969.496.031-.247v-.249h-4Zm-.5 4-3.969-.496-.031.247v.249h4Zm-4 3.483a4 4 0 0 0 8 0h-8Zm5.748-25.308-3.832-1.15 3.832 1.15Zm1.325-4.538-3.922-.787 3.922.787Zm-.181.724-3.832-1.15 3.832 1.15Zm4.537-1.612c.445-2.337.677-3.582.76-4.074.004-.02.058-.317.076-.583a3.936 3.936 0 0 0-.057-1.022 7.102 7.102 0 0 0-.196-.696c-.127-.297-.559-1.002-.891-1.383-.581-.487-2.103-1.12-2.999-1.187-.743.099-1.896.562-2.307.842-.656.512-.975 1.102-1.017 1.177-.184.322-.28.603-.292.635-.057.159-.092.29-.099.317-.015.052-.026.097-.034.128a32.2 32.2 0 0 0-.18.82c-.286 1.36-.845 4.143-1.042 5.127l7.844 1.573c.2-.998.751-3.739 1.027-5.054l.085-.4.034-.153c-.001.004-.006.028-.016.062a3.851 3.851 0 0 1-.087.277c-.01.028-.106.306-.288.626-.042.074-.361.664-1.016 1.175-.41.28-1.564.743-2.307.842-.896-.067-2.417-.7-2.998-1.186-.332-.382-.763-1.087-.891-1.384-.07-.2-.165-.549-.195-.694a4.07 4.07 0 0 1-.066-.605 3.996 3.996 0 0 1 .008-.4c.016-.221.051-.392.017-.19-.067.392-.28 1.544-.731 3.913l7.858 1.497Zm-8.369.463-1.144 3.813 7.663 2.299 1.144-3.814-7.663-2.299Zm-1.614 6.341-.934 12.14 7.976.614.934-12.14-7.976-.614Zm-.946 12.447v4h8v-4h-8Zm.031 3.504-.5 4 7.938.992.5-4-7.938-.992Zm-.531 4.496v3.483h8v-3.483h-8Zm1.916-22.975a11.99 11.99 0 0 0-.47 2.528l7.976.614c.022-.286.075-.569.157-.843l-7.663-2.299Zm1.235-4.175a3.766 3.766 0 0 1-.091.361l7.663 2.3c.107-.358.198-.718.272-1.088l-7.844-1.573Z"/>
      <path id="A-k" stroke="currentColor" stroke-width="8" d="m135.885 83.5 4.5-70.5-7.5 101 1.081-26.167a2 2 0 0 1 .65-1.395L149.885 72.5l10-11-24.701 25.634a2 2 0 0 0 .462 3.132L145.885 96l19.5 14.5"/>
      <path id="A-le" stroke="currentColor" stroke-width="8" d="m28.885 100 32.452-9.68a16 16 0 0 0 5.038-2.542l11.006-8.27c1.33-1 2.495-2.2 3.455-3.558l1.304-1.845a16 16 0 0 0 2.542-5.717L89.387 47.5l3.972-20.85.057-.285c.441-2.098 5.848-27.78 2.969-13.865-2.683 12.967-14.96 71.118-17.526 83.27a15.729 15.729 0 0 0-.287 4.543l.507 6.336a6.329 6.329 0 0 0 8.742 5.337l6.645-2.769a15.983 15.983 0 0 0 5.16-3.455l4.723-4.723a16.027 16.027 0 0 0 1.871-2.25l3.896-5.666c.513-.747.962-1.537 1.342-2.36l1.827-3.958a9.523 9.523 0 0 0 .792-2.73l.493-3.693a3.73 3.73 0 0 0-5.653-3.67l-2.294 1.412a8.077 8.077 0 0 0-3.235 3.803l-1.76 4.274a16.038 16.038 0 0 0-1.029 3.723l-.535 3.58a15.953 15.953 0 0 0-.177 2.368v10.846a7.954 7.954 0 0 0 4.726 7.271l.432.192a9.5 9.5 0 0 0 3.859.819h.9c1.38 0 2.751-.222 4.059-.659l.312-.104a11.84 11.84 0 0 0 5.957-4.443 11.86 11.86 0 0 0 1.787-3.919l.688-2.755a16.13 16.13 0 0 1 .718-2.188l2.562-6.251.559-1.587a15.999 15.999 0 0 1 4.755-6.899l3.184-2.695"/>
      <path id="A-a" stroke="currentColor" stroke-width="8" d="M8.385 117.5c-14.5 7.5 11.2-5.5 16-11.5 4.8-6 17.167-20.667 21-27l10-22 10.803-31.419c.133-.387.25-.776.354-1.172a843.936 843.936 0 0 1 2.21-8.257c2.431-8.89 4.665-8.384 4.107.816l-.94 15.524c-.021.339-.052.67-.096 1.006-.263 2-1.363 10.08-3.936 25.502-3.002 18-4.505 35.552-4.664 42-.172 7-.002 16.333-.336 20.5-.333 4.167 1.196-32 1.196-32"/>
    </g>
  </g>
</svg>
