<svg version="1.2" xmlns="http://www.w3.org/2000/svg" viewBox="0 0 500 221" width="500" height="221">
	<title>IMG_6353</title>
	<style>
		.s0 { fill: #2d2c2a } 
	</style>
	<g id="Background">
		<path id="Path 1" fill-rule="evenodd" class="s0" d="m125.2 39.4c0.2-0.1 0.8 0.1 1.5 0.2 0.6 0.1 1.3 0.3 1.6 0.5 0.2 0.1 0.8 0.6 1.2 1 0.4 0.4 0.8 1 0.9 1.2 0.1 0.2 0.2 0.5 0.3 0.6 0.2 0.1 0.3 0.4 0.3 0.7 0 0.2 0.1 0.4 0.3 0.5 0.2 0.2 0.3 0.4 0.3 0.9 0 0.4-0.1 0.8-0.1 0.9-0.1 0.1-0.3 0.5-0.3 0.9-0.1 0.4-0.1 1.2-0.2 1.7 0 0.6-0.1 1.4-0.1 1.8 0 0.5-0.1 1.6-0.2 2.4 0 0.9-0.2 2.1-0.2 2.7-0.1 0.6-0.1 1.1-0.1 1.2 0 0 0 0.2-0.1 0.4-0.2 0.2-0.2 0.6-0.1 1.7q0.1 1.4-0.1 1.8c-0.2 0.3-0.2 0.4 0.4 1l-0.3 0.3c-0.2 0.3-0.3 0.6-0.4 1.5 0 0.6 0 1.4-0.1 1.7 0 0.4-0.1 1.3-0.2 1.9 0 0.7-0.1 1.4-0.2 1.6-0.1 0.2-0.2 1-0.2 1.8-0.1 0.7-0.2 1.7-0.3 2.1-0.1 0.4-0.2 1.4-0.2 2.2-0.1 0.8-0.2 1.6-0.3 1.9-0.1 0.2-0.1 0.7-0.1 1 0.1 0.3 0 1.1-0.1 1.7-0.2 0.6-0.3 1.5-0.3 2 0 0.5-0.1 0.9-0.1 1-0.1 0.1-0.2 0.6-0.3 1.2 0 0.5-0.1 1.4-0.2 1.8 0 0.5-0.2 0.9-0.2 1-0.1 0.1-0.2 0.8-0.3 1.5-0.1 0.7-0.3 1.6-0.4 2-0.2 0.3-0.3 1-0.4 1.5 0 0.4-0.2 1.3-0.3 1.9-0.1 0.7-0.2 1.3-0.2 1.4-0.1 0.2-0.2 0.9-0.3 1.5-0.2 0.7-0.4 2.3-0.6 3.6-0.2 1.3-0.3 2.6-0.4 3-0.1 0.3-0.2 0.9-0.3 1.3-0.1 0.4-0.2 1.1-0.3 1.6-0.1 0.5-0.2 1.1-0.2 1.4-0.1 0.2-0.1 1.3-0.2 2.3-0.1 1-0.2 2.1-0.4 2.4-0.1 0.3-0.2 0.9-0.2 1.3 0 0.3-0.1 0.7-0.1 0.7-0.1 0.1-0.3 1-0.3 2.1-0.1 1.2-0.1 2.1-0.1 2.2 0 0.1-0.1 0.8-0.2 1.7-0.2 0.9-0.4 2.6-0.5 3.7-0.1 1.1-0.3 2.9-0.4 3.8 0 1-0.1 2-0.1 2.4-0.1 0.4 0 0.8 0 0.9 0.1 0.1 0.3 0.2 0.6 0 0.3-0.1 0.8-0.4 1-0.6 0.3-0.3 0.8-0.7 1.1-0.9 0.4-0.2 0.8-0.6 0.9-0.9 0.2-0.3 0.4-0.6 0.6-0.7 0.1-0.2 0.3-0.4 0.5-0.6 0.2-0.2 0.5-0.5 0.7-0.7 0.2-0.1 0.6-0.6 0.8-0.9 0.2-0.3 0.5-0.8 0.6-1 0.1-0.3 0.6-0.9 1-1.5 0.5-0.6 1.3-1.9 1.8-3 0.6-1.1 1.1-2.2 1.3-2.5 0.1-0.3 0.3-0.7 0.3-1 0-0.3 0.1-1 0.3-1.7 0.2-0.7 0.4-1.9 0.4-2.8 0-0.9 0.1-1.8 0.2-2 0.2-0.3 0.2-0.8 0.2-1.6-0.1-0.6-0.1-1.2 0-1.3 0.1-0.1 0.2-0.8 0.2-1.5 0-0.7 0.2-1.5 0.3-1.7 0.1-0.3 0.2-0.6 0.2-0.8 0-0.2 0.1-0.6 0.2-1 0.2-0.4 0.2-0.8 0.1-2-0.1-0.9 0-2.2 0.1-3.7 0.1-1.3 0.2-2.6 0.2-3 0-0.3 0.1-0.7 0.2-0.9 0.1-0.1 0.2-0.6 0.4-1 0.2-0.6 0.1-0.7-0.1-0.9-0.2-0.3-0.2-0.4 0.1-0.9 0.1-0.3 0.3-0.8 0.4-1.1 0-0.3 0.1-0.9 0.1-1.3 0-0.5 0.1-1 0.2-1.2 0.1-0.2 0.3-0.9 0.3-1.5 0.1-0.6 0.3-1.4 0.4-1.7 0.2-0.3 0.4-0.9 0.4-1.3 0.1-0.4 0.2-0.9 0.3-1.1 0.1-0.1 0.2-0.9 0.2-1.6 0.1-0.8 0.1-1.7 0.2-2 0.1-0.3 0.3-1 0.6-1.6 0.2-0.6 0.5-1.3 0.6-1.5 0-0.2 0.3-0.8 0.6-1.3 0.2-0.5 0.4-1.1 0.5-1.4 0-0.2 0.1-0.6 0.3-0.9 0.1-0.2 0.4-0.8 0.6-1.1 0.1-0.4 0.4-0.9 0.6-1.3 0.1-0.3 0.3-0.8 0.3-1-0.1-0.3 0.1-0.6 0.2-0.8 0.1-0.1 0.3-0.4 0.3-0.7 0-0.2 0-0.5 0.1-0.5 0.1-0.1 0.3-0.4 0.5-0.7 0.2-0.5 0.3-0.9 0.3-1.6-0.1-0.9 0-1.1 0.4-1.6 0.4-0.4 0.5-0.9 0.8-2.1 0.2-1.3 0.2-1.6 0-1.8-0.1-0.2-0.2-0.7-0.1-1.5 0-0.7 0-1.3-0.1-1.4-0.1 0-0.1-0.3-0.1-0.6 0.1-0.4 0-0.9-0.1-1.2-0.1-0.4-0.1-0.6 0-0.8 0.1-0.2 0.2-0.5 0.2-0.7 0-0.2 0.2-0.6 0.5-0.8 0.2-0.3 0.7-0.5 0.9-0.6 0.3 0 0.7-0.2 0.8-0.3 0.1-0.2 0.4-0.3 0.7-0.3 0.2 0 1.3 0 2.4-0.1 2.1 0 2.1 0 3.1 0.5 0.5 0.2 1.3 0.6 1.6 0.8 0.3 0.2 0.7 0.6 0.8 0.8 0.1 0.2 0.5 0.8 0.7 1.2 0.4 0.6 0.5 0.8 0.3 1-0.1 0.2-0.2 0.6-0.3 0.9 0 0.2-0.1 0.7-0.2 1 0 0.4 0 0.7 0 0.9 0 0.1-0.2 0.4-0.5 0.7-0.2 0.3-0.3 0.6-0.2 0.8 0 0.1 0.1 0.4 0.1 0.7 0.1 0.3 0 0.5-0.3 0.6-0.4 0.2-0.4 0.3-0.4 0.8 0.1 0.4 0 0.7-0.2 1q-0.3 0.4-0.3 1c0 0.3-0.1 0.8-0.2 1-0.1 0.2-0.2 0.8-0.2 1.4 0 0.6 0 1.1-0.1 1.1-0.1 0.1-0.1 0.2-0.1 0.4 0 0.1 0 0.4-0.2 0.6-0.1 0.2-0.3 1-0.4 1.7 0 0.7-0.2 1.6-0.4 2.1-0.1 0.4-0.3 1.2-0.3 1.9-0.1 0.6-0.1 1.3-0.2 1.5 0 0.3-0.1 1.1-0.1 1.9-0.1 0.8-0.3 1.9-0.5 2.3-0.1 0.5-0.3 1.1-0.4 1.5-0.1 0.3-0.2 1.1-0.3 1.9 0 0.7-0.1 1.5-0.2 1.9-0.2 0.3-0.3 1.3-0.4 2.2-0.1 0.9-0.3 2.1-0.5 2.6-0.1 0.6-0.4 1.8-0.5 2.8-0.1 0.9-0.2 1.8-0.3 2-0.1 0.1-0.2 0.8-0.2 1.4 0 0.9 0 1.2-0.3 1.4-0.3 0.3-0.4 0.6-0.4 1.3 0.1 0.6-0.1 1.1-0.4 1.8q-0.4 0.9-0.3 1.4c0.1 0.2 0 0.6-0.2 0.8-0.1 0.2-0.3 0.8-0.4 1.3-0.2 0.6-0.3 1.4-0.3 1.9 0 0.7-0.1 1-0.3 1.2-0.2 0.1-0.3 0.5-0.3 0.8 0 0.3-0.1 0.8-0.3 1.1-0.1 0.3-0.3 0.9-0.3 1.2 0 0.4 0 0.7-0.1 0.8-0.1 0-0.2 0.3-0.2 0.5 0 0.2-0.1 0.4-0.2 0.5-0.1 0-0.1 0.3-0.1 0.6 0 0.3-0.2 1-0.4 1.6-0.1 0.6-0.3 1.3-0.3 1.6 0 0.3-0.1 0.6-0.2 0.8-0.2 0.2-0.3 0.7-0.3 1.1q0 0.7-0.3 1.1c-0.2 0.3-0.3 0.6-0.2 0.9 0 0.2 0 0.5-0.2 0.8-0.2 0.2-0.3 0.6-0.3 0.9 0 0.3-0.1 0.8-0.2 1.1-0.2 0.3-0.3 0.8-0.4 1.2 0 0.4-0.1 0.8-0.2 1-0.1 0.1-0.2 0.6-0.2 1 0 0.4 0 0.8-0.1 0.8-0.1 0.1-0.2 0.2-0.2 0.4 0 0.2-0.1 0.6-0.3 1-0.2 0.4-0.4 0.8-0.4 0.9 0 0.1-0.1 0.5-0.2 0.8-0.1 0.4-0.3 1-0.3 1.3 0 0.4-0.1 1.2-0.3 1.7-0.2 0.5-0.3 1.1-0.3 1.4 0 0.3-0.1 0.6-0.2 0.6-0.1 0.1-0.2 0.4-0.2 0.7-0.1 0.4-0.2 1.4-0.3 2.2-0.1 0.9-0.3 1.7-0.3 1.8-0.1 0-0.2 0.3-0.2 0.5 0 0.3-0.1 0.7-0.2 1.1-0.2 0.3-0.3 0.9-0.3 1.2 0 0.3 0 0.9-0.1 1.2-0.1 0.4-0.3 0.9-0.4 1.3 0 0.3-0.1 0.7 0 0.7 0 0.1-0.1 0.4-0.2 0.7-0.2 0.4-0.2 1.1-0.2 3.4 0 2 0.1 3.2 0.3 3.8 0.2 0.5 0.4 0.9 0.5 0.9 0.1 0.1 0.4 0.1 0.7 0.2 0.4 0 0.5 0 0.5-0.1 0-0.1 0-0.2 0.1-0.3 0.1-0.1 0.6-0.2 1-0.4 0.4-0.1 0.8-0.3 1-0.4 0.2-0.2 0.7-0.2 2.7 0 2 0.1 2.6 0.1 2.9-0.1 0.3-0.1 0.6-0.3 0.6-0.5 0-0.2 0-0.8 0-1.3 0-0.6 0-1.7 0.1-2.5 0.1-0.8 0.2-1.8 0.2-2.2-0.1-0.3-0.1-1.1-0.1-1.6 0-0.6 0.1-1.5 0.3-2 0.1-0.6 0.2-1.2 0.2-1.5-0.1-0.2-0.1-0.6 0.1-0.8 0.1-0.2 0.3-1.4 0.4-2.6 0.2-1.3 0.4-2.5 0.6-2.9 0.2-0.3 0.3-0.8 0.3-0.9 0-0.2 0.1-0.6 0.2-0.9 0.2-0.4 0.3-0.8 0.4-0.9 0.1-0.2 0.2-0.4 0.2-0.5 0-0.2 0.2-0.5 0.4-0.9 0.2-0.3 0.4-0.7 0.4-0.8 0-0.2 0.1-0.5 0.3-0.7 0.1-0.3 0.5-0.8 0.9-1.3 0.3-0.4 0.7-1 1-1.3 0.2-0.4 0.4-0.7 0.4-0.9 0-0.1 0.3-0.4 0.7-0.7 0.4-0.3 0.7-0.7 0.8-0.9 0-0.2 0.4-0.6 1.3-1 0.7-0.4 1.5-0.9 1.8-1.2 0.3-0.3 0.6-0.6 0.7-0.6 0.2 0 0.6-0.1 0.9-0.3 0.3-0.2 1.2-0.6 1.9-0.9 0.7-0.3 1.5-0.6 1.7-0.6 0.2 0 0.6-0.1 0.9-0.2 0.4-0.3 0.8-0.3 2.3-0.2 1 0.1 2.3 0.2 2.9 0.3 0.8 0.1 1 0.2 1.8 1 0.5 0.5 0.9 1 0.9 1.2 0 0.2 0.1 0.5 0.3 0.7 0.2 0.4 0.3 0.8 0.2 2.8 0 1.4-0.1 2.8-0.2 3.2-0.1 0.4-0.3 1.5-0.4 2.3-0.1 0.9-0.3 1.7-0.4 1.9-0.1 0.1-0.2 0.4-0.2 0.7 0 0.4-0.1 1-0.2 1.5-0.1 0.5-0.4 1.3-0.6 1.8-0.2 0.5-0.3 1-0.3 1.2 0 0.1-0.2 0.5-0.4 0.9-0.3 0.3-0.5 0.8-0.6 1.1 0 0.3-0.2 0.6-0.2 0.6-0.1 0-0.1 0.1-0.1 0.2 0.1 0.1 0 0.3-0.1 0.5-0.2 0.1-0.4 0.6-0.5 1-0.2 0.4-0.4 0.9-0.5 1-0.2 0.1-0.4 0.7-0.6 1.2-0.3 0.6-0.7 1.3-1 1.6-0.3 0.3-0.5 0.6-0.5 0.8 0 0.1-0.4 0.6-0.9 1.2-0.5 0.5-1 1.2-1.3 1.6-0.2 0.5-0.5 1-0.8 1.3-0.2 0.3-0.6 0.9-0.9 1.3-0.3 0.5-0.6 0.9-0.7 1-0.2 0.1-0.5 0.6-0.8 1.1-0.3 0.5-0.8 1.1-1.1 1.5-0.3 0.3-0.6 0.8-0.7 1.1 0 0.5 0 0.7 0.3 0.9 0.2 0.2 0.7 0.6 1.1 0.8 0.7 0.3 1 0.3 2.5 0.3 1.3-0.1 1.8-0.2 2.1-0.4 0.3-0.1 0.7-0.3 1.1-0.3 0.4 0 0.7-0.1 1-0.4 0.2-0.2 0.7-0.8 1.1-1.2 0.5-0.5 0.8-0.9 0.8-1 0-0.1 0.3-0.6 0.6-1.2 0.3-0.5 0.6-1.1 0.6-1.3 0-0.2 0.2-0.6 0.5-1 0.3-0.4 0.5-0.8 0.5-0.9 0-0.1 0.1-0.5 0.3-0.9 0.2-0.4 0.3-0.9 0.3-1.2 0-0.2 0.3-0.9 0.6-1.6 0.3-0.6 0.6-1.4 0.7-1.8 0-0.4 0.3-1.1 0.5-1.6 0.2-0.4 0.5-1.1 0.5-1.4 0.1-0.3 0.3-0.9 0.5-1.4 0.1-0.5 0.4-1.1 0.5-1.4 0.1-0.3 0.3-0.8 0.4-1.2 0.1-0.3 0.2-0.9 0.3-1.4 0.1-0.4 0.2-1 0.4-1.3 0.1-0.3 0.3-0.6 0.3-0.7 0 0 0.1-0.6 0.4-1.1 0.2-0.6 0.4-1.2 0.3-1.2 0-0.1 0.1-0.5 0.3-0.7 0.2-0.3 0.5-0.8 0.5-1.1 0.1-0.3 0.2-0.8 0.3-1.1 0-0.5 0.3-0.9 0.6-1.2 0.3-0.3 0.6-0.9 0.7-1.4 0.1-0.5 0.3-0.9 0.4-0.9 0.1-0.1 0.1-0.3 0.1-0.5 0-0.2 0.2-0.6 0.4-0.9 0.2-0.2 0.6-1 0.9-1.7 0.6-1.2 0.7-1.3 1.9-2.1 1.2-0.8 1.4-0.9 3.2-0.9v-0.6c0-0.3 0.1-1.4 0.2-2.5 0.1-1 0.2-2 0.2-2.1 0.1 0 0.2-0.8 0.2-1.7 0.1-0.9 0.2-1.6 0.3-1.7 0-0.1 0.1-0.7 0.2-1.4 0.1-0.7 0.3-2.5 0.4-4.1 0.1-1.5 0.3-3.3 0.3-4 0-0.7 0.1-1.9 0.1-2.6 0.1-0.7 0.2-1.6 0.2-2 0.1-0.3 0.2-1.8 0.2-3.3 0-1.4 0.2-3.1 0.2-3.7 0.1-0.6 0.2-1.2 0.2-1.3 0-0.1 0-0.4 0-0.6 0-0.3 0-1.8 0.1-3.5 0-1.6 0.2-3.9 0.2-5.1 0.1-1.2 0.2-4.3 0.2-7-0.1-3.5-0.1-4.8-0.3-5-0.1-0.2-0.1-0.4 0-0.6 0.1-0.2 0.1-0.7 0-2.1-0.1-1-0.3-2.2-0.3-2.6-0.1-0.5-0.2-1-0.3-1.2-0.1-0.2-0.2-0.6-0.1-0.9 0-0.3 0.2-0.8 0.3-1 0.2-0.2 0.4-0.6 0.5-0.9q0.3-0.5 0.7-0.6c0.2 0 0.9-0.2 1.4-0.5 0.9-0.4 1-0.4 2.6-0.2 0.9 0.1 1.9 0.3 2.3 0.5 0.4 0.2 1 0.4 1.2 0.5 0.3 0.1 0.7 0.4 0.9 0.6 0.2 0.3 0.5 0.7 0.7 0.8 0.4 0.2 0.4 0.3 0.3 1-0.1 0.5 0 0.8 0.1 0.9q0.3 0.3 0.1 0.5c-0.1 0.2-0.1 0.4 0 0.6 0.2 0.3 0.2 0.5 0 1-0.1 0.4-0.2 0.8-0.3 1 0 0.2-0.1 1.1-0.1 2.1 0 0.9-0.2 2.7-0.3 3.8-0.1 1.2-0.1 2.6-0.1 3.2 0.1 0.5 0.1 1 0.1 1.1-0.1 0-0.2 1.7-0.2 3.8-0.1 2-0.2 3.8-0.2 3.9-0.1 0.2-0.1 1.1-0.2 2.2 0 1 0 2.1 0 2.4 0 0.3 0 1.1 0 1.8 0 0.7-0.1 2.4-0.2 3.6-0.1 1.3-0.2 2.9-0.3 3.5-0.1 0.6-0.2 1.9-0.2 2.8 0 0.9-0.1 2.3-0.2 3.2-0.1 0.8-0.2 2.3-0.3 3.3 0 1-0.2 2.3-0.4 2.9-0.1 0.5-0.2 1.4-0.2 1.9 0 0.4-0.1 1.5-0.2 2.4-0.1 0.8-0.2 2-0.3 2.7 0 0.6-0.1 1.5-0.2 2-0.1 0.5-0.2 1.4-0.2 1.9-0.1 0.8-0.1 1 0.2 1 0.1 0 0.4-0.3 0.6-0.5 0.2-0.3 0.8-0.9 1.3-1.2 0.6-0.4 1.4-1.2 2-1.7 0.5-0.5 1.2-1.2 1.6-1.4 0.3-0.2 0.8-0.7 1.1-0.9 0.3-0.3 0.8-0.9 1.2-1.4 0.3-0.5 0.7-1.2 0.9-1.5 0.1-0.3 0.4-0.6 0.7-0.7 0.2-0.2 0.4-0.4 0.5-0.7 0-0.3 0-0.7 0-1-0.1-0.4-0.1-0.5 0.2-0.6 0.2-0.1 0.5-0.3 0.5-0.4 0.1-0.1 0.5-0.5 0.9-1 0.4-0.4 1.2-1.3 1.9-2 0.7-0.7 1.4-1.3 1.6-1.3 0.3-0.1 0.9-0.3 1.4-0.4 0.7-0.3 1-0.3 1.5-0.2 0.3 0.1 0.8 0.2 1.1 0.2 0.4 0.1 1 0.3 1.5 0.7 0.5 0.3 1.3 0.9 1.8 1.3 0.7 0.5 0.9 0.8 0.9 1.1-0.1 0.2 0 0.3 0 0.3 0.1 0 0.1 0.6 0 1.2 0 0.7-0.1 1.3-0.2 1.5-0.2 0.1-0.4 0.5-0.6 1-0.2 0.4-0.6 1-1 1.4-0.4 0.4-0.8 0.7-0.9 0.7-0.1 0-0.3 0.4-0.4 0.8-0.2 0.4-0.3 0.8-0.2 0.8 0.1 0.1 0.3 0.1 0.4-0.1 0.2-0.1 0.6-0.3 0.9-0.4 0.3-0.2 0.9-0.4 1.2-0.6 0.4-0.2 1.6-0.8 2.6-1.3 1.4-0.7 2.1-1 2.7-1.1 0.5 0 1.4-0.1 2-0.1 0.7-0.1 1.5-0.1 1.9-0.1 0.4 0 1 0 1.3 0.1 0.2 0.1 0.5 0.1 0.6 0.1 0.1-0.1 0.6-0.2 1.1-0.2 0.6 0 1.2 0.1 1.5 0.2 0.2 0.2 0.5 0.3 0.5 0.3 0.1 0 0.4 0.2 0.7 0.4 0.4 0.3 0.5 0.4 1.1 0.2 0.5-0.1 0.6-0.1 0.8 0.1 0.2 0.1 0.6 0.2 1 0.3 0.4 0 0.9 0.1 1.2 0.2 0.2 0.1 0.6 0.3 0.8 0.3 0.2 0.1 0.7 0.3 1 0.5 0.5 0.3 0.6 0.4 0.6 1.3 0.1 0.7 0 1-0.3 1.4-0.2 0.2-0.4 0.8-0.4 1.2-0.1 0.5-0.3 0.9-0.5 1.2-0.2 0.3-0.4 0.5-0.4 0.6 0 0.1-0.2 0.3-0.5 0.4-0.2 0.2-0.6 0.3-0.8 0.3-0.3 0-0.5-0.1-0.6-0.1 0-0.1-0.3-0.2-0.5-0.2-0.2 0-0.8 0-1.3 0-1 0-1.1-0.1-1.7-0.6-0.3-0.3-0.8-0.6-0.9-0.6-0.2 0-0.3 0.1-0.4 0.3 0 0.1-0.1 0.2-0.2 0.1-0.1 0-0.2-0.2-0.1-0.4 0-0.1 0-0.3-0.1-0.5-0.2-0.1-0.6-0.2-1.1-0.2-0.8 0-1 0.1-1.5 0.6-0.3 0.3-1 0.7-1.5 0.9-0.4 0.1-1.1 0.5-1.5 0.9-0.6 0.4-0.8 0.7-0.9 1.3-0.1 0.4-0.2 0.8-0.2 0.9 0 0 0.1 0.3 0.3 0.5 0.2 0.2 0.6 0.6 0.8 0.9 0.2 0.2 0.4 0.5 0.4 0.7-0.1 0.1 0.1 0.5 0.3 0.9 0.3 0.3 0.6 1 0.9 1.4 0.2 0.4 0.4 0.8 0.4 0.9 0 0.1 0.3 0.6 0.8 1.1 0.4 0.6 1 1.4 1.2 1.8 0.2 0.4 0.5 0.9 0.7 1.1 0.2 0.3 0.7 1 1 1.7 0.5 0.8 1 1.5 1.8 2.2 0.8 0.8 1.1 1.1 1.1 1.5 0 0.3 0.2 0.9 0.4 1.5 0.2 0.5 0.5 1.2 0.8 1.4 0.3 0.3 0.4 0.6 0.4 0.9 0 0.3 0.4 1.3 0.8 2.1 0.4 0.9 0.8 2 0.9 2.5 0.1 0.6 0.2 1.5 0.3 2 0.1 0.6 0.2 1.2 0.3 1.4q0.3 0.4 0.2 1.6c-0.1 0.6-0.2 2.2-0.3 3.5-0.1 1.4-0.3 2.6-0.3 2.7-0.1 0.2-0.2 0.6-0.2 0.9 0 0.4-0.1 0.8-0.3 0.9-0.1 0.1-0.3 0.4-0.3 0.6-0.1 0.2-0.3 0.7-0.5 1.2-0.2 0.5-0.6 1.4-0.9 2-0.3 0.6-0.8 1.4-1 1.7-0.3 0.3-0.6 0.6-0.7 0.6-0.1 0-0.5 0.2-0.8 0.4-0.3 0.2-1 0.6-1.6 0.8-0.5 0.2-1.1 0.4-1.2 0.6-0.2 0.1-0.4 0.2-0.4 0.1-0.1 0-0.3 0.1-0.5 0.2-0.2 0.1-0.5 0.2-0.7 0.2-0.3 0-0.7 0-1-0.1-0.4-0.1-1-0.2-1.4-0.3-0.5-0.2-1.6-0.3-2.4-0.3-0.9-0.1-2.1-0.2-2.7-0.4-0.6-0.2-1.3-0.4-1.5-0.5-0.2-0.1-0.6-0.4-0.9-0.6-0.3-0.2-0.9-0.7-1.4-1.2-0.4-0.5-1.1-1-1.5-1.3-0.3-0.2-0.7-0.5-0.8-0.7-0.2-0.1-0.4-0.5-0.4-0.8-0.1-0.4-0.4-0.8-0.6-1.1-0.3-0.3-0.6-0.8-0.7-1.2-0.1-0.3-0.2-1-0.3-1.5-0.1-0.4-0.4-1.1-0.6-1.5-0.4-0.6-0.4-0.9-0.3-1.5 0.1-0.6 0-1-0.4-1.8-0.2-0.5-0.6-1.1-0.8-1.3-0.2-0.2-0.9-0.7-1.6-1-0.8-0.4-1.3-0.5-2-0.5-0.5 0-1.3-0.1-1.8-0.3-0.8-0.1-1-0.3-1.2-0.6-0.1-0.3-0.3-0.3-0.7-0.2-0.4 0-0.8 0-1.1-0.2-0.3-0.1-0.7-0.2-0.9-0.2-0.2 0-0.6-0.2-0.9-0.4-0.3-0.1-0.7-0.3-0.8-0.3-0.1 0-0.6-0.2-1-0.4-0.5-0.2-1-0.4-1.2-0.4-0.3 0-0.6-0.1-0.8-0.2-0.2 0-0.8-0.2-1.2-0.4-0.5-0.1-1.1-0.3-1.5-0.3-0.5-0.1-0.7-0.1-1 0.2-0.2 0.2-0.2 0.4-0.2 0.8 0.1 0.2 0.2 0.9 0.2 1.4 0.1 0.7 0.2 0.9 0.5 1.2 0.2 0.1 0.4 0.4 0.4 0.6 0 0.2 0.1 0.5 0.3 0.6 0.2 0.2 0.2 0.3-0.1 0.7-0.2 0.4-0.4 1.1-0.5 2.6-0.1 1.1-0.2 2.8-0.2 3.8-0.1 1.1-0.2 2-0.4 2.3-0.1 0.3-0.4 0.7-0.7 1.1-0.3 0.3-0.5 0.6-0.5 0.7 0 0-0.2 0.1-0.4 0.2-0.2 0.1-0.7 0.4-1 0.7q-0.7 0.6-1.4 0.7c-0.5 0.1-0.7 0.1-1.4-0.4-0.5-0.3-0.9-0.6-1-0.6-0.1-0.1-0.5-0.2-0.8-0.3-0.3-0.1-0.8-0.2-1.1-0.2-0.4 0-0.7-0.2-1.3-0.9-0.5-0.5-1-1-1.3-1.1-0.4-0.3-0.4-0.4-0.4-1.9 0-1.2 0-1.6 0.3-2 0.2-0.3 0.3-0.7 0.3-0.9 0-0.2-0.1-0.5-0.2-0.6-0.1-0.1-0.1-0.3 0.1-0.7 0.2-0.3 0.3-1.2 0.4-1.8 0-0.7 0.1-2 0.1-2.8 0.1-1 0.1-1.5 0-1.5-0.1 0-0.3 0.4-0.5 0.8-0.1 0.5-0.2 1.1-0.2 1.2 0 0.2-0.1 0.6-0.3 0.8-0.1 0.2-0.2 0.6-0.2 0.8 0 0.3-0.2 0.9-0.4 1.5-0.3 0.5-0.4 1-0.4 1.2 0 0.1-0.2 0.6-0.3 1-0.2 0.4-0.5 0.8-0.6 0.9-0.2 0.2-0.4 0.8-0.6 1.4-0.1 0.7-0.3 1.4-0.4 1.7-0.1 0.3-0.4 0.8-0.7 1.1-0.3 0.4-0.7 1.1-0.9 1.6q-0.4 0.9-1.2 1.5c-0.4 0.3-1.1 0.9-1.5 1.3-0.4 0.4-0.9 0.7-1 0.7-0.1 0-0.5 0.3-0.8 0.6-0.4 0.3-0.8 0.5-0.9 0.5-0.1 0-0.5 0.2-0.7 0.5-0.3 0.2-0.9 0.5-1.3 0.6-0.4 0.1-1 0.3-1.3 0.5-0.3 0.1-1.3 0.3-2.3 0.4-1 0.1-2.1 0.3-2.4 0.4-0.4 0.1-0.7 0.1-1.1-0.1-0.2-0.1-1.1-0.2-1.9-0.2-1.2-0.1-1.4-0.1-2.2-0.6-0.8-0.5-1.1-0.6-1.9-0.6-0.7 0-0.9-0.1-1-0.4-0.1-0.2-0.4-0.5-0.8-0.6-0.3-0.2-0.7-0.3-0.8-0.3-0.1 0-0.4-0.3-0.7-0.6-0.3-0.4-0.8-0.6-1-0.7q-0.5-0.1-1.1-0.8c-0.4-0.5-0.6-0.6-1.3-0.7-0.4 0-1.2 0.1-1.9 0.3-0.7 0.3-1.7 0.5-2.1 0.6-0.5 0.1-1.2 0.2-1.7 0.1-0.5-0.1-1-0.2-1.1-0.4-0.1-0.1-0.4-0.2-0.6-0.2-0.2 0-0.7 0.2-1 0.5-0.3 0.2-0.7 0.6-0.9 0.7-0.1 0.2-0.3 0.5-0.3 0.7 0 0.4-0.2 0.6-1.2 1.3-0.6 0.5-1.4 1.1-1.7 1.2-0.5 0.2-0.8 0.3-1.4 0.2-0.5-0.1-1.2-0.2-1.6-0.2-0.5 0-0.9-0.1-1-0.2-0.2-0.1-0.8-0.4-1.5-0.8-0.7-0.3-1.5-0.8-1.8-1.1-0.3-0.3-0.5-0.6-0.4-0.6 0-0.1 0-0.2-0.1-0.3-0.1 0-0.2-0.8-0.3-1.5 0-0.8-0.1-1.5-0.2-1.6-0.1-0.1-0.2-0.5-0.3-0.8 0-0.4-0.2-0.9-0.4-1.3-0.3-0.4-0.4-0.9-0.4-2 0-0.8-0.1-1.9-0.1-2.3-0.1-0.4-0.2-1.5-0.4-2.4-0.1-0.9-0.3-2.1-0.3-2.6 0-0.5 0-1.7 0.1-2.6 0-0.8 0.2-2 0.3-2.5 0.1-0.6 0.2-1.4 0.3-1.9 0.1-0.5 0.1-1 0.1-1.1 0 0 0.1-0.4 0.3-0.8q0.4-0.8 0.2-1c-0.1-0.1-0.3-0.1-0.6 0-0.2 0.1-0.6 0.3-0.8 0.5-0.2 0.2-0.8 0.7-1.2 1-0.4 0.3-0.9 0.8-1 1-0.2 0.3-0.5 0.6-0.6 0.7-0.2 0.2-0.6 0.4-0.9 0.4-0.5 0.1-1 0.4-2.4 1.7l-0.1 1.5c-0.1 0.8-0.2 1.7-0.3 2 0 0.4 0 0.7 0.1 0.8 0.1 0.1 0.1 0.4-0.1 0.9-0.1 0.4-0.1 1.8-0.1 3.7 0 1.6 0 4.7 0 6.7 0 2.1 0.1 3.8 0.2 3.9 0.1 0.1 0.1 0.5 0.1 1 0 0.5 0.1 1.5 0.2 2.1 0.1 0.6 0.2 1.5 0.2 2 0 0.5 0.1 1.4 0.1 2.1 0 0.8 0 1.4-0.2 1.7-0.2 0.3-0.8 1-1.4 1.5-1 1-1.1 1.1-1.8 1-0.3-0.1-1-0.2-1.4-0.3-0.4-0.2-1-0.4-1.3-0.6-0.3-0.2-0.8-0.4-1.1-0.4-0.3 0-0.9-0.1-1.3-0.4-0.4-0.2-1-0.7-1.4-1.1-0.4-0.4-0.7-0.9-0.8-1.1 0-0.3 0-1 0.1-1.7 0.2-0.7 0.2-2.7 0.3-4.9 0-2.1-0.1-3.8-0.2-3.9 0-0.1 0-0.7 0.1-1.3q0.1-1.2 0-1.7c-0.2-0.4-0.1-0.6 0-1.1 0.2-0.3 0.3-1.2 0.4-1.9 0.1-0.9 0-1.7-0.2-2.5-0.2-1.1-0.2-1.3 0-1.8 0.2-0.4 0.2-0.6 0.1-0.9-0.1-0.1-0.3-0.3-0.5-0.3-0.1 0-0.4 0.1-0.5 0.3-0.1 0.1-0.4 0.2-0.7 0.2-0.2 0-0.8 0.3-1.4 0.6-0.6 0.3-1.1 0.6-1.1 0.7-0.1 0.1-0.3 0.2-0.6 0.3-0.3 0.1-1 0.3-1.5 0.6-0.5 0.3-1.1 0.7-1.4 0.9-0.2 0.2-0.7 0.5-1.1 0.6-0.4 0.1-1.3 0.5-2 1-0.6 0.4-1.4 0.9-1.5 0.9-0.2 0.1-1.1 0.5-1.9 0.9-0.9 0.4-1.8 1-2.1 1.3-0.3 0.3-0.6 0.5-0.8 0.5-0.2 0-0.6 0.2-1 0.4-0.4 0.2-0.8 0.6-1 0.7-0.2 0.2-0.9 0.5-1.6 0.8-0.7 0.2-1.4 0.5-1.7 0.7-0.2 0.2-0.9 0.5-1.4 0.8-0.6 0.3-1 0.3-1.4 0.3-0.3-0.1-0.9-0.2-1.3-0.4-0.4-0.1-1-0.4-1.3-0.5-0.4-0.3-0.8-0.4-1.6-0.4-1.1 0-1.2 0.1-1.7 0.6-0.3 0.4-1 0.9-1.4 1.2-0.5 0.4-1 0.9-1.3 1.1-0.2 0.3-1.1 1.1-1.9 1.8-0.9 0.7-2 1.6-2.6 2-0.6 0.4-1.3 1-1.6 1.3-0.3 0.3-1.1 0.8-1.8 1.1-0.6 0.3-1.4 0.8-1.7 1-0.3 0.2-0.9 0.6-1.3 0.8-0.4 0.3-0.9 0.6-1.1 0.7-0.2 0.2-0.7 0.5-1.2 0.8-0.5 0.2-1.2 0.6-1.4 0.8-0.3 0.2-0.8 0.4-1.2 0.5-0.4 0.1-1 0.5-1.4 0.8-0.4 0.3-0.9 0.7-1.2 0.7-0.2 0.1-1 0.1-1.9 0-0.8-0.1-1.9-0.3-2.5-0.4-0.7-0.2-1.4-0.6-1.9-1-0.4-0.4-0.9-0.7-1.1-0.7-0.1 0-0.5-0.2-0.7-0.5-0.3-0.2-0.5-0.6-0.5-0.9 0-0.2-0.2-0.7-0.5-1.1-0.4-0.6-0.5-0.8-0.3-1.1 0.1-0.2 0.2-0.6 0.2-0.9q0-0.6 0.3-0.8c0.2-0.1 0.3-0.3 0.3-0.4 0-0.2 0.2-0.3 0.4-0.4 0.2-0.1 0.4-0.3 0.5-0.3 0-0.1 0.4-0.3 0.8-0.5 0.5-0.3 1-0.4 2.1-0.4 0.8-0.1 1.9-0.2 2.4-0.3 0.6-0.1 1.2-0.2 1.5-0.2 0.2-0.1 1-0.4 1.8-0.8 0.7-0.3 1.5-0.6 1.6-0.6 0.1 0 0.4-0.3 0.7-0.5 0.3-0.3 0.7-0.6 1-0.6 0.4-0.1 1-0.5 1.6-1 0.6-0.5 1.2-0.9 1.3-0.9 0.2 0 0.5-0.2 0.7-0.5 0.3-0.2 0.7-0.6 0.9-0.7 0.3-0.2 0.9-0.6 1.4-0.9 0.5-0.4 1-0.9 1.2-1.1 0.1-0.3 0.5-0.7 0.7-1 0.3-0.2 0.7-0.6 1.1-0.8 0.3-0.1 1.1-0.8 1.6-1.5 0.5-0.6 1-1.1 1.1-1.1 0 0 0.4-0.4 0.9-0.9 0.5-0.4 0.9-0.9 0.9-0.9 0-0.1 0.3-0.7 0.7-1.2 0.4-0.6 0.8-1.1 0.9-1.3 0.1-0.1 0.3-0.5 0.5-0.8 0.1-0.2 0.6-0.8 1-1.2 0.3-0.4 1-1.2 1.4-1.7 0.5-0.6 1-1.1 1-1.3 0.1-0.1 0.5-0.5 0.7-0.7 0.3-0.2 0.6-0.6 0.7-0.8 0-0.2 0.4-0.8 0.7-1.3 0.4-0.5 0.8-1.1 1.1-1.3 0.2-0.2 0.7-0.9 0.9-1.4 0.3-0.6 0.7-1.2 0.9-1.5 0.2-0.3 0.6-0.9 0.8-1.4 0.2-0.4 0.6-1 0.8-1.2 0.2-0.2 0.5-0.6 0.7-0.9 0.2-0.3 0.7-1 1.1-1.7 0.4-0.7 0.7-1.3 0.7-1.3 0-0.1 0.3-0.6 0.6-1.3 0.5-0.7 0.7-1.3 0.7-1.7 0-0.4 0.2-0.8 0.6-1.2 0.3-0.3 0.8-1.2 1.2-2 0.4-0.7 1-1.8 1.4-2.4 0.4-0.6 0.8-1.3 0.9-1.6 0.1-0.3 0.3-0.7 0.5-1 0.1-0.3 0.2-0.6 0.1-0.7 0-0.2 0.4-1.1 0.9-2 0.4-1 0.9-2.1 1.1-2.5 0.1-0.4 0.3-1 0.4-1.3 0-0.4 0.2-0.7 0.3-0.9 0.1-0.2 0.2-0.5 0.1-0.7q0-0.3 0.4-0.7c0.3-0.3 0.5-0.7 0.7-1.1 0.1-0.3 0.1-0.6 0.1-0.7-0.1-0.1 0-0.3 0.1-0.5 0.2-0.2 0.3-0.6 0.3-0.9-0.1-0.2 0-0.6 0.2-0.7 0.1-0.2 0.5-0.9 0.9-1.6 0.3-0.7 0.6-1.4 0.5-1.4 0-0.1 0.2-0.6 0.5-1.1 0.2-0.5 0.4-1.2 0.4-1.5 0-0.2 0.1-0.7 0.3-0.9 0.2-0.3 0.4-0.7 0.4-0.9 0-0.2 0-0.5 0.2-0.6 0.1-0.2 0.4-0.7 0.6-1.3 0.2-0.5 0.5-1.1 0.7-1.3 0.1-0.1 0.2-0.4 0.2-0.5-0.1-0.2 0-0.5 0.2-0.6 0.2-0.3 0.3-0.7 0.3-1.3 0-0.8 0.1-1 0.5-1.2 0.4-0.3 0.4-0.5 0.3-0.9-0.1-0.5 0-0.7 0.2-0.9 0.1-0.1 0.2-0.4 0.2-0.6 0-0.3 0.1-0.7 0.2-1 0.1-0.3 0.3-0.8 0.3-0.9 0.1-0.2 0.3-0.7 0.4-1.2 0.2-0.4 0.3-1 0.2-1.2 0-0.3 0-0.5 0.1-0.7 0.1-0.1 0.2-0.2 0.2-0.3 0-0.1 0.1-0.3 0.2-0.6 0.2-0.2 0.4-0.5 0.5-0.6 0.2 0 0.6-0.6 0.9-1.1q0.5-1 0.6-2c0-0.5 0.2-1 0.3-1.2 0.1-0.1 0.3-0.5 0.4-0.9 0.1-0.4 0.2-0.7 0.1-0.8 0-0.1 0.1-0.4 0.2-0.8 0.1-0.3 0.2-0.7 0.2-0.9 0-0.2 0.2-0.8 0.4-1.4 0.1-0.6 0.4-1.5 0.6-2q0.3-1 0.2-1.2c-0.1-0.2-0.1-0.4 0-0.5 0-0.2 0.2-0.4 0.4-0.6 0.1-0.1 0.3-0.3 0.2-0.5 0-0.1 0.2-0.4 0.5-0.6 0.2-0.3 0.4-0.5 0.4-0.6 0 0 0.1-0.4 0.3-0.8 0.2-0.4 0.5-1.1 0.6-1.5 0.1-0.5 0.4-1.4 0.5-2 0.2-0.6 0.4-1.4 0.5-1.7 0.1-0.2 0.3-0.8 0.4-1.3 0.1-0.4 0.2-1.1 0.3-1.4 0-0.3 0.1-0.7 0.2-0.9 0.1-0.2 0.3-0.8 0.4-1.4 0.2-0.6 0.5-1.5 0.6-2 0.2-0.5 0.3-1.3 0.4-1.8 0.1-0.5 0.2-1.1 0.4-1.3 0.1-0.3 0.3-0.9 0.3-1.5 0.1-0.6 0.2-1.1 0.2-1.1 0.1 0 0.1-0.4 0.1-0.9q-0.1-0.7 0-0.9c0.1 0 0.2-0.3 0.2-0.6 0-0.3-0.1-0.9-0.2-1.2-0.1-0.4-0.2-0.8-0.3-0.9-0.1-0.2-0.2-0.5-0.2-0.8 0-0.4 0.2-0.7 0.5-1.1 0.3-0.3 0.6-0.6 0.6-0.7 0 0 0.2-0.3 0.5-0.6 0.3-0.2 0.9-0.6 1.4-0.7 0.4-0.1 1.2-0.4 1.7-0.5 0.5-0.1 1-0.2 1.2-0.2zm169.5 12.4c0.3 0.1 0.8 0.2 1.1 0.3 0.3 0.1 0.8 0.2 1.1 0.3 0.4 0.1 1 0.4 1.4 0.7 0.5 0.4 1 0.7 1.4 0.7 0.3 0.1 0.7 0.4 0.9 0.7 0.2 0.2 0.5 0.7 0.6 1 0.2 0.3 0.3 0.5 0.2 0.5 0 0 0.1 0.3 0.4 0.6 0.4 0.6 0.4 0.6 0.2 1.4-0.2 0.5-0.2 1.1-0.1 2 0 0.7 0.2 1.3 0.3 1.4q0.1 0.3-0.1 0.3c-0.1 0.1-0.2 0.7-0.2 2.2 0 1.3-0.1 2.3-0.2 2.5-0.2 0.3-0.2 0.4 0.1 0.6 0.2 0.1 0.2 0.3 0.1 0.8 0 0.4 0 0.7 0.1 0.7 0 0 0 0.6-0.1 1.3-0.2 0.6-0.3 1.8-0.3 2.4 0 0.7-0.1 1.7-0.2 2.2-0.1 0.6-0.1 1.1 0.1 1.5q0.2 0.6 0 0.7c-0.1 0.1-0.2 0.9-0.2 1.9 0 0.9 0 1.7-0.1 1.8-0.1 0-0.2 0.7-0.2 1.6 0 0.9 0.1 2 0.2 2.3 0.1 0.5 0 0.8-0.2 1.1-0.2 0.3-0.2 0.6-0.1 1.9 0 0.8 0 3 0 4.8-0.1 1.8-0.2 3.4-0.3 3.6 0 0.2 0 0.5 0.1 0.7 0.1 0.4 0.1 0.6-0.1 1-0.2 0.3-0.2 0.7-0.1 0.8 0 0.2 0.1 1.3 0.1 2.6-0.1 1.2-0.1 2.5-0.2 2.8 0 0.3-0.1 1.1-0.1 1.7 0 0.6-0.1 1.5-0.2 2-0.1 0.4-0.3 1.1-0.3 1.5 0 0.3-0.1 0.8-0.2 1-0.1 0.2-0.3 1-0.3 2-0.1 0.9-0.2 2.4-0.2 3.4 0 1-0.2 2.1-0.2 2.3-0.1 0.3-0.2 0.7-0.2 0.9 0 0.3 0 0.5 0.1 0.6 0.1 0.1 0.1 0.6 0 1.1-0.1 0.5-0.2 1.3-0.2 1.8-0.1 0.8 0 1 0.3 1.6 0.2 0.3 0.5 0.6 0.6 0.6 0 0 0.2 0.2 0.4 0.6 0.2 0.3 0.4 0.5 0.5 0.5 0.1-0.1 0.3 0 0.5 0.1 0.3 0.2 0.4 0.2 1 0 0.3-0.2 1.3-1 2.2-1.8 0.8-0.8 1.7-1.7 2-1.9 0.3-0.2 0.7-0.6 0.8-0.9 0.1-0.3 0.9-1.2 1.8-2.1 0.9-0.8 2-1.8 2.4-2.1 0.3-0.3 0.7-0.6 0.7-0.7 0-0.1 0.5-0.7 1.1-1.4 0.7-0.7 1.4-1.6 1.7-2 0.3-0.3 0.8-1.2 1.3-1.9 0.4-0.7 1-1.4 1.2-1.7 0.2-0.3 0.5-0.7 0.7-1 0.1-0.3 0.5-0.8 0.9-1.2 0.3-0.3 0.7-0.9 0.7-1.1 0.1-0.3 0.5-0.9 0.9-1.3 0.4-0.5 0.8-1.2 1-1.7 0.1-0.4 0.4-0.9 0.7-1.2 0.3-0.2 0.7-0.8 0.9-1.2 0.1-0.3 0.5-0.8 0.8-1 0.3-0.2 0.7-0.8 0.9-1.2 0.2-0.5 0.6-1 0.8-1.3 0.2-0.2 0.5-0.7 0.7-1 0.3-0.4 0.6-0.9 0.7-1 0.2-0.2 0.4-0.6 0.4-0.9 0-0.3 0.1-0.6 0.3-0.6 0.1-0.1 0.4-0.5 0.6-0.9 0.2-0.5 0.4-0.9 0.4-1 0-0.1 0.1-0.3 0.3-0.4 0.3-0.2 0.4-0.3 0.3-0.3-0.1 0 0.2-0.7 0.7-1.6 0.5-0.9 0.8-1.8 0.8-1.9 0-0.2 0.1-0.3 0.2-0.3 0 0 0.3-0.4 0.6-1 0.3-0.6 0.6-1.2 0.6-1.4 0-0.2 0.1-0.6 0.4-1 0.2-0.3 0.4-0.9 0.4-1.1 0-0.3 0-1.1 0-1.7-0.1-0.7 0-1.3 0.1-1.4 0.1-0.1 0.2-0.5 0.3-0.9 0-0.4 0.1-1.3 0.2-2.1 0.1-1.5 0.1-1.5-0.8-2.9l0.2-1.4c0.2-0.7 0.4-1.5 0.5-1.6 0.1-0.1 0.3-0.2 0.5-0.2 0.1 0 0.3-0.2 0.4-0.5q0.2-0.6 0.8-0.8c0.3-0.2 0.7-0.3 0.9-0.3 0.2 0 0.4-0.1 0.4-0.3 0-0.2 0.2-0.2 1.4-0.1 1.2 0 1.5 0.1 2.2 0.5 0.4 0.3 0.8 0.5 0.9 0.5 0.1 0 0.4 0.3 0.7 0.7 0.3 0.4 0.7 0.7 0.8 0.7 0.1 0 0.5 0.2 0.8 0.6 0.4 0.3 0.6 0.8 0.6 1 0 0.2 0.1 0.6 0.3 0.8 0.2 0.3 0.2 0.7 0.1 2.1 0 0.9-0.1 2.2-0.2 2.8 0 0.6-0.2 1.3-0.3 1.5-0.3 0.4-0.3 0.4 0 0.7 0.1 0.2 0.3 0.3 0.3 0.4 0 0.1-0.1 0.1-0.3 0.1-0.1 0-0.3 0.2-0.3 0.5-0.1 0.2 0 0.8 0.1 1.1 0.2 0.7 0.2 0.8-0.2 1.2-0.2 0.2-0.5 0.5-0.5 0.5-0.1 0.1-0.2 0.4-0.2 0.8 0 0.5-0.1 0.8-0.3 0.9-0.2 0.2-0.3 0.5-0.3 0.8 0 0.3-0.2 1.1-0.4 1.7-0.2 0.6-0.5 1.2-0.6 1.4-0.2 0.2-0.4 0.6-0.5 0.9-0.1 0.4-0.2 0.6-0.3 0.6-0.1 0-0.2 0.3-0.2 0.5 0 0.3-0.2 0.6-0.4 0.9q-0.4 0.4-0.5 1.1c-0.1 0.6-0.2 0.7-0.6 0.9-0.3 0.2-0.5 0.5-0.6 0.9-0.1 0.3-0.4 0.8-0.6 1-0.1 0.1-0.6 0.8-0.9 1.4-0.3 0.7-0.6 1.3-0.7 1.4-0.1 0.1-0.2 0.4-0.3 0.7-0.2 0.3-0.4 0.8-0.6 1-0.2 0.2-0.3 0.4-0.2 0.5 0 0 0 0.2 0 0.3-0.1 0.2-0.4 0.3-0.7 0.4-0.4 0.1-0.5 0.2-0.5 0.6q0 0.5-0.4 0.7c-0.1 0.1-0.3 0.3-0.3 0.4 0 0-0.4 0.6-0.8 1.1q-0.8 1.1-0.8 1.5c0.1 0.2 0 0.3-0.2 0.4-0.3 0.1-0.5 0.3-0.7 0.5-0.1 0.2-0.5 0.7-0.8 1.2-0.4 0.5-0.7 1-0.7 1 0 0.1-0.2 0.4-0.4 0.7-0.3 0.3-0.7 0.7-0.9 0.9-0.2 0.3-0.5 0.7-0.7 0.9-0.1 0.3-0.6 0.9-1.1 1.4-0.5 0.5-0.8 1-0.8 1.1 0 0-0.3 0.5-0.7 0.9-0.4 0.4-0.7 0.8-0.7 1 0 0.1-0.1 0.3-0.3 0.5-0.2 0.2-0.6 0.5-0.8 0.8-0.2 0.3-0.6 0.8-0.9 1.3-0.3 0.5-0.8 1-1 1.2-0.2 0.3-0.4 0.5-0.4 0.7 0 0.1-0.5 0.6-1 1.2-0.6 0.5-1 1-1 1.1 0 0-0.6 0.7-1.3 1.4-0.6 0.7-1.8 2-2.6 2.8-0.7 0.7-1.4 1.5-1.6 1.6-0.1 0.1-1 1.1-2 2.1-1.6 1.6-1.8 1.8-1.7 2.2 0 0.3 0.3 0.7 0.6 1 0.3 0.3 0.9 0.8 1.2 1.1 0.4 0.3 0.8 0.5 0.9 0.5 0.1 0 0.3 0.3 0.5 0.6 0.1 0.3 0.4 0.7 0.7 0.9 0.2 0.2 0.5 0.4 0.5 0.4 0.1 0 0.5 0.2 0.8 0.6 0.4 0.3 0.9 0.7 1.1 0.7 0.2 0.1 0.4 0.3 0.5 0.5 0 0.2 0.3 0.5 0.7 0.7 0.3 0.2 0.9 0.6 1.3 0.9 0.3 0.3 0.7 0.5 0.9 0.5 0.1 0 0.6 0.3 1.1 0.6 0.5 0.3 1.2 0.6 1.4 0.7 0.3 0.1 0.9 0.3 1.2 0.6 0.5 0.3 1 0.4 1.3 0.4 0.3 0 0.7 0.1 1 0.3 0.5 0.2 0.5 0.2 0.9-0.2 0.2-0.2 0.7-0.5 1.1-0.7 0.4-0.2 0.9-0.7 1.2-1 0.3-0.3 0.7-0.9 0.9-1.2 0.1-0.3 0.5-0.8 0.8-1 0.3-0.3 0.5-0.6 0.5-0.7 0-0.2 0.1-0.3 0.3-0.3 0.2-0.1 0.7-0.5 2.1-1.7l-0.4-1.8c-0.2-1-0.3-2.2-0.3-2.7 0-0.4 0-0.9 0-1.1 0-0.2 0-0.9 0.1-1.6 0.1-0.7 0.2-1.4 0.3-1.5 0.1-0.2 0.2-0.7 0.3-1 0-0.4 0.3-0.9 0.5-1.1 0.3-0.2 0.5-0.6 0.6-0.8 0.1-0.2 0.5-0.6 0.9-0.8 0.5-0.3 1-0.8 1.2-1.1 0.2-0.4 0.5-0.6 0.7-0.6 0.1 0 0.4-0.1 0.6-0.3 0.2-0.1 0.3-0.4 0.3-0.6 0-0.3 0.1-0.4 0.5-0.3q0.6 0 0.8-0.3c0.1-0.1 0.5-0.5 0.8-0.7 0.3-0.3 0.8-0.5 1.3-0.5 0.4-0.1 1.5-0.2 2.5-0.4 0.9-0.1 2-0.2 2.4-0.2 0.4 0 0.9-0.1 1.1-0.2 0.1-0.1 0.5-0.2 0.7-0.3 0.2-0.2 1.1-0.3 1.9-0.3 1.4 0 1.8 0 2.4 0.3 0.4 0.2 0.8 0.3 1 0.2 0.1 0 0.6 0.3 1.1 0.7 0.5 0.5 1.2 1.1 1.4 1.5 0.3 0.3 0.7 0.8 0.9 1 0.2 0.2 0.4 0.3 0.6 0.2 0.1-0.1 0.4-0.5 0.5-0.8 0.2-0.4 0.4-0.7 0.4-0.7 0.1 0 0.3-0.2 0.4-0.6q0.3-0.6 0.9-0.8c0.3-0.1 0.7-0.3 0.8-0.5 0.1-0.2 0.6-0.2 2.4-0.3 1.6-0.1 2.4 0 2.6 0.1 0.3 0.1 0.7 0.5 1.1 0.8 0.3 0.3 0.9 0.7 1.2 0.8 0.3 0.1 0.9 0.5 1.2 0.8 0.3 0.4 0.6 0.8 0.6 1.1 0.1 0.3 0.2 0.6 0.3 0.7 0.2 0.1 0.3 0.3 0.2 0.5q0 0.4 0.3 0.4c0.2-0.1 0.3-0.2 0.4-0.2 0-0.1-0.2-0.4-0.4-0.7-0.2-0.3-0.4-0.6-0.4-0.8 0-0.1-0.1-0.4-0.3-0.6-0.1-0.2-0.1-0.3-0.1-0.3 0.1 0 0.2-0.3 0.2-0.7 0-0.4-0.1-0.7-0.2-0.7 0-0.1-0.1-0.5-0.1-0.9 0-0.5 0-0.8-0.3-1-0.2-0.3-0.3-0.6-0.3-1.3 0-0.5-0.1-1-0.1-1-0.1 0-0.1-0.2 0-0.4 0.1-0.3 0.1-0.4-0.1-0.6-0.3-0.2-0.4-0.6-0.4-1.2 0-0.8 0-1 0.4-1.4 0.3-0.3 0.8-0.6 1.3-0.8 0.4-0.1 1.1-0.4 1.6-0.7 0.6-0.3 1.1-0.5 1.5-0.4 0.3 0 0.6-0.1 0.6-0.2 0-0.1 0.3-0.1 0.5-0.1 0.3 0 0.9 0.2 1.5 0.4 0.5 0.3 1.2 0.5 1.4 0.6 0.3 0.1 0.9 0.5 1.3 0.9 0.5 0.5 0.8 1 0.8 1.2 0 0.1 0.2 0.3 0.4 0.4 0.2 0.2 0.3 0.4 0.3 0.5 0 0.1 0.1 0.4 0.3 0.5 0.1 0.1 0.2 0.4 0.2 0.6 0 0.2 0.1 0.5 0.2 0.6 0.2 0.2 0.3 0.3 0.2 0.8-0.1 0.4-0.1 0.6 0.2 0.9 0.3 0.3 0.3 0.6 0.3 1.8-0.1 1.3 0 1.5 0.4 2 0.2 0.3 0.4 0.7 0.4 0.9 0 0.2 0.1 0.6 0.3 0.9 0.1 0.2 0.5 1 0.9 1.7 0.3 0.7 0.6 1.5 0.6 1.7 0 0.2 0.2 0.8 0.5 1.2 0.3 0.4 0.5 0.9 0.5 1 0 0.2 0.1 0.4 0.2 0.5 0.2 0.2 0.3 0.3 0.3 0.4 0 0.1 0.2 0.5 0.6 1 0.3 0.5 0.5 1 0.5 1.1 0 0.1 0.1 0.3 0.2 0.5 0.1 0.1 0.3 0.7 0.5 1.2 0.2 0.6 0.5 1.1 0.6 1.2 0.2 0.1 0.5 0.5 1.1 1.6l0.6-0.6c0.3-0.4 0.5-0.7 0.5-0.8 0-0.1 0.2-0.5 0.4-0.9 0.2-0.5 0.6-1.1 0.8-1.5 0.3-0.4 0.4-0.8 0.4-0.9-0.1-0.1 0.3-0.9 0.7-1.8 0.5-0.9 0.8-1.7 0.8-1.8-0.1 0 0-0.2 0.2-0.4 0.2-0.2 0.4-0.5 0.4-0.6 0-0.2 0.2-0.7 0.5-1.3 0.3-0.5 0.6-1.3 0.7-1.7 0.1-0.5 0.3-1.2 0.3-1.6q0-0.8 0.2-0.7c0.1 0 0.2-0.1 0.2-0.2 0-0.1-0.1-0.4-0.2-0.6-0.2-0.3-0.3-0.6-0.2-1.2 0.1-0.4 0.2-0.8 0.3-0.8 0.1-0.1 0.4-0.1 0.7 0q0.4 0.1 0.4-0.1c0-0.1 0.3-0.5 0.5-0.8 0.3-0.3 0.5-0.6 0.4-0.7 0-0.1 0-0.2 0.1-0.3 0.1 0 0.3 0 0.4 0.2 0.1 0.2 0.2 0.2 0.3 0 0.1-0.1 0.9-0.4 3-1.1l1.3 0.3c0.7 0.1 1.6 0.5 2.1 0.7 0.4 0.3 1.3 1 2 1.6 0.6 0.7 1.2 1.4 1.3 1.6 0 0.2 0.1 0.8 0.1 1.3 0 0.5 0 1.1-0.1 1.4 0 0.4 0 0.7 0 0.8 0.1 0.1 0.1 0.8 0.2 1.7 0 0.8 0.1 1.6 0.2 1.8 0.1 0.2 0.2 0.8 0.2 1.4 0.1 0.6 0.3 1.3 0.5 1.7 0.1 0.3 0.4 0.6 0.4 0.6 0.1 0 0.3 0.2 0.3 0.5 0.1 0.3 0.2 1 0.2 1.5 0.1 0.5 0.3 1.2 0.4 1.5 0.2 0.4 0.4 0.7 0.5 0.7 0.1 0.1 0.4-0.2 0.7-0.5 0.2-0.4 0.4-0.7 0.4-0.8 0-0.1 0.3-0.7 0.7-1.3 0.4-0.6 0.8-1.1 0.9-1.2 0.1 0 0.2-0.2 0.2-0.4 0-0.1 0.2-0.4 0.3-0.6 0.1-0.2 0.2-0.5 0.2-0.6 0 0 0.3-0.5 0.7-1 0.4-0.5 0.9-1.1 1-1.3 0.2-0.2 0.3-0.7 0.4-1.1 0.1-0.5 0.2-0.8 0.5-1q0.4-0.3 0.5-0.9c0.1-0.3 0.2-0.7 0.3-0.8 0.2-0.1 0.5-0.8 0.9-1.6 0.3-0.7 0.7-1.6 0.9-2 0.3-0.4 0.5-1 0.5-1.3 0.1-0.3 0.3-0.8 0.5-1.2 0.2-0.3 0.4-0.7 0.4-0.8 0-0.2 0.2-1 0.3-1.8 0.2-0.8 0.4-1.6 0.4-1.7 0.1-0.1 0.3-0.3 0.5-0.5 0.3-0.1 0.6-0.4 0.8-0.8 0.2-0.3 0.4-0.6 0.6-0.6 0.2 0 0.3-0.1 0.4-0.2 0.1-0.1 0.6-0.2 1.1-0.3 0.6 0 1.4-0.1 1.9-0.3 0.8-0.1 1-0.1 1.8 0.1 0.4 0.2 1 0.4 1.3 0.6 0.3 0.1 1.1 0.9 1.8 1.6 0.7 0.8 1.4 1.6 1.5 1.9 0.1 0.2 0.2 0.6 0.3 0.9q0.1 0.6-0.1 0.9c-0.1 0.2-0.2 0.8-0.1 2.1 0.1 1.3 0.2 2.2 0.4 2.6 0.2 0.4 0.2 0.7 0.1 0.9-0.1 0.2-0.1 1-0.1 2.1 0.1 1.6 0.2 1.9 0.7 2.9 0.4 0.9 0.5 1.1 0.3 1.4-0.1 0.3-0.1 0.6 0 1 0.2 0.4 0.4 1.5 0.5 2.6 0.1 1.3 0.2 2 0.4 2.2 0.2 0.2 0.4 0.7 0.4 1.5 0.1 0.6 0.3 1.4 0.5 1.8 0.1 0.3 0.3 0.9 0.3 1.3 0 0.4 0.2 0.8 0.3 1 0.1 0.2 0.2 0.6 0.2 0.8 0 0.2 0.1 0.8 0.4 1.4 0.2 0.6 0.4 1.4 0.5 1.8 0.1 0.4 0.2 0.9 0.3 1 0.1 0 0.3 0.3 0.4 0.5 0.1 0.2 0.2 0.7 0.3 1.2 0.1 0.8 0.2 1 1.2 2 0.6 0.7 1.2 1.2 1.3 1.3 0.2 0 0.4 0.1 0.5 0.3 0.1 0.1 0.2 0.5 0.2 0.7 0 0.2 0.1 0.7 0.3 1.1 0.2 0.3 0.4 0.8 0.5 1.1 0 0.3 0.2 0.6 0.3 0.7 0.2 0.1 0.3 0.5 0.4 1.4 0 0.7 0 1.4-0.1 1.7-0.1 0.3-0.4 1-0.7 1.6-0.2 0.5-0.7 1.2-0.9 1.3-0.3 0.2-0.6 0.3-0.8 0.3-0.2 0-0.4 0.1-0.5 0.3-0.1 0.1-0.4 0.2-0.5 0.3-0.1 0-0.4 0-0.5-0.1-0.1 0-0.9-0.2-1.6-0.3-0.8-0.1-1.8-0.4-2.4-0.6-0.7-0.4-1.4-0.8-2.3-1.8-0.8-0.7-1.3-1.4-1.3-1.6 0-0.1-0.1-0.6-0.3-0.9-0.1-0.4-0.5-1-0.8-1.5-0.3-0.5-0.7-1-0.9-1.1q-0.4-0.3-0.2-0.4c0.2-0.1 0.2-0.2 0-0.7-0.1-0.3-0.3-0.9-0.5-1.4-0.2-0.4-0.3-0.9-0.3-1 0-0.1-0.2-0.7-0.4-1.2-0.3-0.5-0.6-1.2-0.7-1.6-0.1-0.4-0.2-0.9-0.2-1.3 0-0.3-0.1-0.6-0.1-0.7-0.1 0-0.3-0.4-0.5-0.9-0.1-0.4-0.2-0.9-0.2-1 0-0.1-0.2-0.6-0.4-1.1-0.3-0.4-0.5-1-0.4-1.4 0-0.3-0.1-0.9-0.3-1.4-0.1-0.5-0.3-0.9-0.4-1.1-0.1-0.1-0.2-0.6-0.2-1.2-0.1-0.5-0.3-1.5-0.5-2.2-0.3-0.7-0.5-1.3-0.7-1.3-0.1 0-0.2 0.2-0.3 0.3-0.1 0.1-0.4 0.7-0.7 1.3-0.3 0.6-0.8 1.6-1.2 2.3-0.4 0.6-0.7 1.4-0.7 1.6 0 0.2-0.1 0.4-0.2 0.4-0.2 0-0.6 0.4-1 0.8-0.4 0.4-0.9 1.2-1.1 1.7-0.2 0.4-0.3 0.8-0.3 0.8 0 0-0.2 0.6-0.6 1.3-0.3 0.7-0.7 1.6-0.8 2-0.1 0.6-0.3 0.9-0.8 1.2-0.4 0.3-0.5 0.5-0.5 0.9 0 0.2-0.1 0.4-0.2 0.5-0.1 0-0.2 0.3-0.2 0.6 0 0.4-0.1 0.7-0.6 1.1-0.3 0.4-1.1 0.9-1.6 1.3-1 0.6-1 0.6-3.1 0.7-1.4 0-2.2 0-2.5-0.1-0.3-0.1-0.6-0.4-0.7-0.6-0.1-0.2-0.3-0.4-0.4-0.5-0.1 0-0.5-0.2-0.7-0.3-0.3-0.1-0.5-0.4-0.6-0.6-0.1-0.3-0.6-0.9-1.1-1.4-0.7-0.7-0.9-1-0.9-1.4 0-0.2-0.1-0.5-0.1-0.6-0.1-0.1-0.3-0.5-0.4-0.9-0.1-0.4-0.2-1.1-0.2-1.6 0-0.4-0.1-0.8-0.1-0.8-0.1-0.1-0.2-0.3-0.2-0.5 0-0.2-0.2-0.6-0.4-1-0.2-0.3-0.4-0.8-0.4-1 0-0.2-0.2-0.5-0.4-0.7-0.1-0.2-0.3-0.7-0.4-1.1 0-0.5-0.1-0.9-0.3-1-0.1 0-0.2-0.1-0.2 0 0 0 0 0.3 0.1 0.6 0.2 0.4 0.1 0.5-0.2 0.5q-0.4 0-0.8 0.9c-0.3 0.4-1 1.6-2.5 4.6v1.5c0 1.4 0 1.6-0.3 2-0.3 0.2-0.6 0.7-0.7 1-0.2 0.3-0.5 0.8-0.6 0.9-0.2 0.2-0.4 0.5-0.5 0.7-0.1 0.2-0.6 0.6-1.2 0.9-0.5 0.3-1.1 0.5-1.4 0.5-0.2 0-0.6 0.1-0.9 0.2-0.5 0.2-0.7 0.2-1.4-0.1-0.5-0.2-1.1-0.4-1.5-0.6-0.3-0.2-0.6-0.4-0.6-0.5 0-0.1-0.3-0.3-0.7-0.5-0.4-0.2-1-0.5-1.3-0.8-0.3-0.2-0.9-0.8-1.2-1.2-0.3-0.4-0.8-1-0.9-1.4-0.2-0.3-0.4-0.8-0.4-1 0-0.2-0.3-0.7-0.7-1.2-0.5-0.5-0.8-0.9-0.8-1 0 0-0.1-0.4-0.2-0.7-0.2-0.4-0.4-0.7-0.6-0.7-0.2-0.1-0.3-0.2-0.2-0.5 0.1-0.4-0.1-0.6-0.7-1.3-0.4-0.5-0.7-1-0.7-1.1 0-0.2-0.2-0.5-0.5-0.7-0.3-0.3-0.5-0.6-0.6-1.1-0.1-0.4-0.2-0.8-0.2-0.8-0.1-0.1-0.6-0.8-1-1.5-0.5-0.8-0.9-1.5-0.9-1.6 0-0.1-0.3-0.7-0.6-1.4-0.4-0.7-0.7-1.4-0.8-1.6-0.1-0.3-0.1-0.4-0.8-0.3-0.7 0.1-0.9 0-1.4-0.3-0.3-0.3-0.7-0.8-0.9-1.3-0.3-0.4-0.4-1.1-0.4-1.4 0-0.4-0.1-0.7-0.3-0.9-0.1-0.1-0.2-0.4-0.2-0.6 0-0.2-0.2-0.4-0.4-0.5q-0.5-0.2-0.5 0c-0.1 0.1-0.1 0.7-0.1 1.5 0 0.7 0 2-0.1 2.8 0 0.7 0 1.6 0.1 1.9 0.1 0.2 0.2 1.1 0.2 1.9 0.1 0.9 0.1 2.2 0.1 3 0 0.8 0.1 2.1 0.2 2.8 0.1 0.8 0.3 1.5 0.4 1.6q0.3 0.2 0.2 0.9c-0.1 0.3-0.1 0.7 0 0.9 0.1 0.1 0.3 0.5 0.4 0.8 0.2 0.4 0.3 0.8 0.4 1.1 0 0.3 0.1 0.8 0.1 1.1 0.1 0.3 0.2 0.7 0.3 0.9 0.2 0.2 0.3 0.9 0.3 2.1q-0.1 1.8-0.3 2c-0.1 0.1-0.2 0.3-0.2 0.4 0 0.1-0.5 0.7-1.3 1.4-1.1 1.1-1.3 1.2-2.1 1.3-0.7 0.1-0.8 0.1-1.1-0.1-0.2-0.2-0.8-0.5-1.3-0.8-0.5-0.2-1.1-0.5-1.4-0.6-0.4-0.1-0.9-0.6-1.2-0.9-0.4-0.4-0.7-0.8-0.7-0.9 0-0.1-0.1-0.2-0.4-0.3-0.2 0-0.5-0.2-0.7-0.4-0.2-0.2-0.4-0.5-0.4-0.7 0-0.1 0.1-0.4 0.2-0.6 0.2-0.3 0.2-0.4 0-0.6-0.2-0.2-0.4-0.7-0.4-1.2-0.1-0.5-0.1-1.1-0.2-1.3 0-0.3-0.2-0.8-0.2-1.2-0.1-0.4-0.3-1-0.4-1.4 0-0.4-0.1-1-0.1-1.4 0-0.4-0.2-1.2-0.4-1.7-0.1-0.6-0.3-0.9-0.3-0.7 0 0.1-0.1 0.2-0.2 0.2 0 0-0.1 0.3-0.1 0.6 0 0.3-0.1 1.1-0.2 1.8-0.1 0.6-0.2 1.5-0.4 1.8-0.1 0.3-0.2 0.8-0.1 1.1q0 0.5-0.2 0.7c-0.2 0.1-0.3 0.4-0.3 0.6 0 0.2-0.1 0.4-0.2 0.5-0.2 0.1-0.3 0.4-0.3 0.6-0.1 0.3 0 0.6 0 0.7q0.2 0.2-0.1 0.4c-0.1 0-0.4 0.4-0.5 0.7-0.2 0.4-0.5 1.1-0.8 1.6-0.2 0.5-0.5 1-0.6 1.2-0.2 0.1-0.3 0.4-0.3 0.7 0 0.4-0.2 0.7-0.7 1.2-0.3 0.3-0.6 0.7-0.6 0.8 0 0.2-0.1 0.3-0.3 0.3-0.1 0.1-0.4 0.1-0.5 0.1-0.2 0-0.5 0.2-0.7 0.4-0.1 0.2-0.5 0.4-0.8 0.4-0.4 0-1 0.1-1.4 0.1-0.4 0-1-0.2-1.2-0.3-0.3-0.1-0.8-0.2-1.2-0.1q-0.6 0-0.9-0.2c-0.1-0.2-0.5-0.4-0.9-0.6-0.3-0.2-0.9-0.5-1.1-0.6-0.3-0.1-0.5-0.3-0.5-0.4-0.1-0.1-0.3-0.2-0.5-0.2-0.3 0-0.6-0.2-0.9-0.5-0.3-0.3-1-1.1-1.6-1.7-0.5-0.6-1.4-1.5-1.8-2-0.5-0.4-0.9-0.9-1-1.1-0.1-0.1-0.4-0.6-0.7-0.9-0.3-0.4-0.6-0.7-0.7-0.8-0.1 0-0.1 0.3-0.1 0.9q0 0.9-0.2 0.9c-0.1 0.1-0.4 0.5-0.7 1.1-0.2 0.5-0.7 1.2-1 1.6-0.3 0.4-0.8 0.9-1 1.1-0.2 0.3-0.5 0.7-0.5 1-0.1 0.3-0.4 0.5-1.1 0.9-0.6 0.2-1.2 0.4-1.4 0.5-0.2 0-0.5 0.1-0.7 0.2-0.1 0.1-0.5 0-0.8 0-0.3-0.1-1.1-0.2-1.9-0.2-0.7 0-1.3-0.1-1.3-0.1-0.1-0.1-0.4-0.2-0.7-0.2-0.4 0-0.9-0.1-1.1-0.3-0.3-0.1-1.1-0.4-1.7-0.6-0.6-0.1-1.4-0.4-1.7-0.6-0.3-0.1-1.2-0.6-2-1-0.8-0.5-1.6-0.8-1.8-0.8-0.1 0-0.5-0.3-0.8-0.6-0.3-0.2-0.8-0.7-1.1-0.9-0.3-0.3-0.6-0.5-0.8-0.5-0.1 0-0.4-0.1-0.7-0.3-0.3-0.1-0.7-0.4-0.9-0.6-0.2-0.2-0.5-0.5-0.6-0.8-0.1-0.2-0.6-0.6-1.1-0.9-0.5-0.2-1.3-0.8-1.7-1.2-0.5-0.5-1.2-1-1.7-1.3-0.4-0.2-0.7-0.4-0.7-0.5 0-0.1-0.5-0.6-1.1-1.2-0.5-0.5-1.3-1.1-1.7-1.4-0.3-0.2-0.9-0.7-1.2-1-0.3-0.3-0.9-0.9-1.4-1.3-0.4-0.4-0.9-0.7-1.1-0.7-0.2 0-0.7-0.3-1.2-0.6-0.4-0.3-0.9-0.6-1-0.6 0 0-0.2 0.1-0.2 0.3-0.1 0.2-0.2 0.7-0.3 1.2-0.1 0.5-0.2 1.3-0.3 1.9-0.1 0.5-0.2 1.5-0.2 2.2-0.1 0.7-0.1 1.7-0.2 2.3-0.1 0.6-0.1 2.2-0.2 3.4 0 2 0 2.4 0.3 2.9 0.3 0.5 0.3 0.6 0.1 1.1-0.2 0.2-0.3 0.7-0.4 1.1 0 0.3-0.2 1-0.4 1.5-0.2 0.6-0.4 1-0.5 1.1-0.1 0-0.1 0.2-0.1 0.3 0 0.2-0.1 0.4-0.3 0.4-0.1 0-0.3 0.1-0.4 0.3-0.1 0.2-0.4 0.5-0.7 0.6-0.3 0.2-1.1 0.3-1.8 0.4q-1.2 0.2-2.4 0c-0.9-0.2-1.4-0.4-2.1-0.9-0.6-0.4-1.2-0.9-1.5-1.1-0.2-0.3-0.4-0.6-0.4-0.6 0-0.1-0.4-0.6-0.9-1.2-0.8-0.9-0.8-1-0.8-1.9 0-0.6-0.1-1.1-0.2-1.2-0.1-0.1-0.2-0.7-0.2-1.4 0-1 0.1-1.3 0.5-1.9 0.2-0.3 0.4-0.7 0.4-0.8 0-0.1 0.3-0.4 0.6-0.6 0.3-0.3 0.6-0.6 0.6-0.8 0-0.2 0.2-0.5 0.4-0.6 0.4-0.3 0.5-0.5 0.7-1.3 0.1-0.5 0.2-1.7 0.3-2.5 0-0.8 0.2-1.7 0.3-2 0.1-0.4 0.3-1.1 0.3-1.6 0.1-0.6 0.2-1.6 0.3-2.3 0.1-1.1 0.1-1.5 0-1.9-0.2-0.2-0.4-0.5-0.6-0.7-0.1-0.1-0.4-0.5-0.6-0.8-0.2-0.4-0.5-0.8-0.9-1-0.4-0.2-1-0.7-1.4-1.1-0.3-0.4-0.8-0.7-0.9-0.7-0.2 0-0.6-0.3-0.8-0.6-0.3-0.4-0.8-1-1.1-1.5-0.2-0.5-0.6-1.1-0.7-1.4-0.2-0.5-0.2-0.7 0-1q0.2-0.2 0-0.6-0.2-0.3 0-0.6c0.1-0.2 0.2-0.6 0.2-0.9 0.1-0.3 0.2-0.5 0.4-0.5 0.2 0 0.4-0.1 0.5-0.4 0.1-0.2 0.3-0.5 0.3-0.7 0.1-0.1 0.3-0.3 0.5-0.3 0.2 0 0.5-0.1 0.8-0.2 0.2-0.1 0.5-0.2 0.7-0.3 0.1 0 0.5-0.1 0.7-0.4 0.4-0.3 0.6-0.4 1-0.3 0.2 0 0.5 0 0.6 0.1 0.1 0 0.8 0 1.5 0 0.8 0 1.4-0.1 1.6-0.1 0.1-0.1 0.2-0.6 0.2-1.2 0.1-0.6 0.2-1.5 0.3-1.9 0.1-0.5 0.2-1.5 0.3-2.2 0-0.7 0.1-1.5 0.1-1.8 0-0.3 0.1-0.9 0.3-1.3 0.1-0.5 0.2-1.9 0.3-3.2 0.1-1.2 0.2-2.7 0.2-3.1 0.1-0.5 0.2-1.6 0.2-2.5 0-0.9 0.1-2.4 0.2-3.3 0-0.9 0.1-2.6 0.1-3.7 0.1-1.2 0.2-2.5 0.3-3 0-0.5 0.1-1.7 0-2.6 0-1-0.1-3.3-0.1-5.2 0-2 0.1-4.6 0.1-5.8 0-1.4 0-2.5-0.1-2.7-0.2-0.2-0.2-0.5 0-1 0.1-0.3 0.2-0.8 0.2-1 0.1-0.1 0-0.4-0.1-0.5q-0.2-0.1 0-0.6c0.2-0.4 0.2-0.5 0-0.7-0.3-0.3-0.3-0.4 0-1 0.3-0.6 0.3-1.1 0.3-1.8 0-0.5-0.1-1.3-0.2-1.8-0.2-0.5-0.2-0.9-0.1-1.3 0.1-0.3 0.1-1.5 0.1-2.6-0.1-1.1-0.2-2.3-0.3-2.6 0-0.4-0.2-0.9-0.4-1.4-0.1-0.4-0.3-1-0.4-1.4-0.1-0.3-0.2-1-0.3-1.6-0.1-0.5-0.1-1.1-0.1-1.3 0.1-0.2 0.6-0.8 1.1-1.3 0.5-0.6 1-1 1.2-1 0.2 0 0.4-0.1 0.6-0.2 0.1-0.2 0.3-0.2 0.8-0.2zm-54.1 34c0.6 0.1 1.2 0.2 1.4 0.2q0.4 0.1 0.3 0.4c0 0.1 0.1 0.3 0.3 0.5 0.2 0.2 0.3 0.5 0.3 1 0 0.4 0.1 1 0.2 1.2 0.1 0.2 0.5 0.5 0.8 0.7 0.3 0.1 0.9 0.6 1.3 1 0.4 0.4 0.8 1 0.9 1.5 0.2 0.5 0.3 1.2 0.2 1.7 0 0.5 0 1 0.1 1 0.1 0.1 0.3 0.4 0.8 1.2l-0.6 0.2c-0.2 0.2-0.6 0.4-0.7 0.6-0.1 0.2-0.6 0.5-1.1 0.8-0.7 0.3-1 0.4-1.8 0.3-0.5-0.1-1-0.3-1.3-0.5-0.2-0.2-0.5-0.3-0.7-0.3-0.2 0.1-0.7-0.2-1.2-0.6-0.5-0.4-0.9-0.8-0.9-0.9 0 0-0.1-0.1-0.2-0.1-0.1 0-0.5-0.3-0.8-0.8-0.3-0.4-0.8-1.1-1-1.6-0.2-0.4-0.5-1.2-0.6-1.7-0.2-0.5-0.3-1.3-0.3-1.7 0-0.5 0.2-1 0.5-1.5 0.2-0.4 0.6-0.9 0.9-1.2 0.4-0.3 0.7-0.7 0.8-0.9 0.2-0.2 0.6-0.4 0.9-0.5 0.3-0.1 1 0 1.5 0zm125.7 2.6c0.6 0 1.4 0.2 2.1 0.4 0.6 0.2 1.3 0.6 1.6 0.8 0.2 0.3 0.8 0.8 1.2 1 0.6 0.5 0.7 0.7 0.7 1.1 0 0.4 0.1 0.6 0.4 0.8 0.3 0.1 0.4 0.2 0.3 0.6-0.1 0.3-0.1 1-0.1 1.6 0 0.8-0.1 1.2-0.4 1.6-0.2 0.3-0.6 0.9-1 1.3-0.8 0.8-0.8 0.8-2 1-0.6 0-1.7 0.1-2.3 0.1-0.9 0-1.4 0-2.2-0.4-0.6-0.3-1.1-0.5-1.2-0.6 0 0 0-0.1 0.1-0.1 0.2-0.1 0.1-0.4-0.5-0.8-0.3-0.4-0.8-0.9-0.9-1.1-0.1-0.2-0.3-0.6-0.4-0.9-0.1-0.3-0.2-0.7-0.2-1 0-0.3-0.1-0.8-0.2-1.3-0.2-0.6-0.2-0.8 0-1.1 0.2-0.2 0.3-0.5 0.3-0.7 0-0.2 0.4-0.7 0.8-1.2 0.7-0.7 0.9-0.8 1.3-0.8 0.3 0.1 0.8 0 1.1-0.1 0.3-0.1 1-0.1 1.5-0.2zm-119.8 28.1c0.3 0 0.8 0.1 1.3 0.2 0.5 0.1 1 0.2 1.1 0.3 0.1 0.1 0.4 0.2 0.6 0.2 0.2 0 0.5 0.2 0.8 0.4 0.3 0.3 0.8 0.9 1.8 2.3l-0.1 2c0 1.1 0 2.2-0.1 2.5 0 0.3-0.1 0.6-0.2 0.8-0.1 0.2-0.2 0.4-0.1 0.5 0 0-0.2 0.6-0.5 1.3-0.3 0.6-0.6 1.6-0.7 2.1 0 0.4-0.1 0.9-0.2 0.9-0.1 0.1-0.2 0.3-0.2 0.5 0 0.2-0.1 0.6-0.2 1-0.2 0.4-0.3 1.1-0.4 1.7-0.1 0.6-0.3 1.3-0.3 1.6 0 0.3-0.1 1-0.2 1.6-0.2 0.6-0.3 1.5-0.4 2 0 0.6-0.2 1.1-0.2 1.3-0.1 0.1-0.2 1.5-0.3 3-0.1 1.6-0.2 4.3-0.3 6.1 0 2.5 0 3.3 0.2 3.9 0.1 0.3 0.2 1.1 0.1 1.8 0 0.8 0.1 1.2 0.3 1.5 0.1 0.3 0.3 0.7 0.2 1 0 0.3 0.2 0.8 0.3 1.1 0.2 0.4 0.4 1.1 0.5 1.6 0.1 0.7 0 1-0.2 1.5-0.2 0.4-0.5 0.8-0.6 0.9-0.2 0.1-0.4 0.3-0.5 0.6-0.1 0.2-0.5 0.7-0.8 1.1-0.3 0.4-0.6 0.8-0.6 0.8 0 0-0.8 0.1-3.5 0.2l-1.3-0.7c-0.7-0.4-1.5-0.8-1.7-1-0.2-0.2-0.4-0.5-0.4-0.6 0-0.1-0.2-0.3-0.5-0.5-0.4-0.3-0.4-0.4-0.4-0.8 0.1-0.3 0-0.6-0.1-0.6 0-0.1-0.1-0.4-0.1-0.7 0-0.4-0.1-1.1-0.2-1.6-0.1-0.6-0.1-2.1-0.2-3.5 0-1.4 0-3.6 0-5 0.1-1.5 0-3.1 0-3.6-0.1-0.5-0.1-1.8 0-2.7 0.1-1 0.3-2.2 0.4-2.8 0.1-0.7 0.1-1-0.1-1.2-0.1-0.3-0.1-0.4 0.1-0.9 0.1-0.3 0.2-1 0.2-1.7 0-0.6 0.1-1.2 0.2-1.4 0.1-0.1 0.3-0.7 0.5-1.2 0.1-0.5 0.4-1.7 0.6-2.7 0.3-1.5 0.4-1.7 0.1-2.1-0.2-0.4-0.2-0.5 0.1-0.7 0.2-0.2 0.4-0.5 0.5-0.8 0.1-0.3 0.2-0.8 0.2-1.2 0-0.4 0.1-1 0.1-1.3 0.1-0.4 0.2-1 0.3-1.4 0.1-0.5 0.1-0.8-0.1-1.1-0.2-0.4-0.2-0.5 0-0.7 0.1-0.1 0.3-0.6 0.4-1.1 0.1-0.4 0.3-1 0.5-1.2 0.1-0.3 0.2-0.6 0.2-0.7 0-0.2 0.3-0.5 0.6-0.7 0.3-0.2 0.7-0.6 0.9-0.9 0.1-0.3 0.4-0.6 0.7-0.7 0.3-0.2 0.7-0.3 1-0.4 0.3-0.1 0.7-0.2 0.9-0.1zm-127.5-36c-0.2 0.2-0.3 0.7-0.4 1.1 0 0.3-0.2 0.8-0.3 1-0.1 0.3-0.1 0.4 0 0.6 0.2 0.2 0.2 0.3 0 0.4-0.2 0.1-0.5 0.7-0.7 1.4-0.2 0.7-0.6 1.7-0.8 2.4-0.3 0.6-0.5 1.5-0.6 1.9 0 0.4-0.2 1.1-0.4 1.6-0.1 0.5-0.4 1.3-0.5 1.7-0.1 0.5-0.4 1.2-0.6 1.6-0.1 0.4-0.4 1.2-0.5 1.8-0.1 0.6-0.3 1.1-0.4 1.1-0.1 0.1-0.2 0.3-0.2 0.5 0 0.3-0.2 0.6-0.4 0.7-0.2 0.1-0.3 0.4-0.2 0.6 0 0.2-0.2 0.6-0.4 0.9-0.1 0.4-0.4 0.8-0.4 1.1-0.1 0.3-0.2 0.6-0.2 0.8 0 0.1-0.2 0.5-0.3 0.9-0.2 0.5-0.5 1.1-0.7 1.5-0.2 0.4-0.7 1.4-1 2.2-0.4 0.8-0.8 1.8-0.9 2.4-0.1 0.5-0.2 1.1-0.2 1.2 0 0.2-0.2 0.5-0.5 0.9-0.2 0.3-0.5 0.7-0.5 0.7 0 0.1-0.1 0.3-0.3 0.6-0.2 0.2-0.3 0.6-0.3 1.1 0 0.4-0.1 0.7-0.2 0.7-0.1 0-0.3 0.4-0.6 0.8-0.2 0.5-0.4 1.1-0.4 1.5 0 0.3-0.1 0.7-0.2 0.8-0.2 0.2-0.5 0.6-0.6 0.9-0.2 0.3-0.3 0.7-0.3 0.9 0 0.2-0.1 0.5-0.3 0.8-0.1 0.3-0.2 0.7-0.2 0.9 0 0.2-0.1 0.4-0.2 0.4-0.1 0.1-0.2 0.2-0.2 0.3 0 0.2-0.1 0.6-0.4 0.9-0.2 0.4-0.4 0.7-0.4 0.8 0 0.2-0.2 0.7-0.5 1.2-0.3 0.5-0.7 1.1-0.9 1.3-0.1 0.3-0.3 0.6-0.4 0.8-0.1 0.2-1 1.9-2 3.8-1 1.9-2.1 4.1-2.5 4.9-0.4 0.8-0.9 1.6-1 1.8-0.1 0.2-0.3 0.5-0.5 0.7-0.2 0.1-0.3 0.4-0.3 0.6 0 0.2-0.2 0.7-0.5 1.1-0.3 0.4-0.5 0.7-0.5 0.7 0 0.1-0.3 0.5-0.7 0.9-0.5 0.5-0.8 0.9-0.8 1 0 0.1-0.3 0.6-0.7 1.2-0.3 0.5-0.9 1.3-1.2 1.6-0.3 0.3-0.8 0.9-1 1.4-0.2 0.4-0.7 1.1-1.1 1.6-0.4 0.4-0.8 0.8-0.8 1-0.1 0.2-0.1 0.3 0.3 0.3 0.3 0 0.8-0.3 1.2-0.6 0.4-0.3 0.9-0.6 1.1-0.6 0.2 0 1-0.4 1.8-0.8 0.8-0.5 1.8-1 2.1-1.1 0.3-0.1 1.1-0.5 1.8-0.9 0.7-0.4 1.4-0.9 1.7-1.1 0.2-0.2 0.6-0.4 0.9-0.5 0.3 0 0.8-0.3 1.2-0.6 0.4-0.2 1-0.4 1.2-0.4 0.3 0 1.4-0.5 2.4-1 1-0.5 1.9-0.9 2-0.9 0.2 0 0.6-0.2 0.9-0.5 0.4-0.3 1-0.7 1.4-1 0.3-0.2 1.1-0.7 1.7-1 0.6-0.3 1.2-0.8 1.3-1 0.1-0.2 0.3-1.1 0.5-1.9 0.2-1.4 0.2-1.6 0-1.8-0.2 0-0.3-0.2-0.3-0.3 0-0.1 0.1-0.3 0.3-0.4 0.3-0.2 0.3-0.6 0.5-3.3 0.1-1.7 0.2-3.2 0.1-3.4 0-0.1 0-0.3 0.1-0.4 0-0.2 0.2-0.7 0.3-1.3 0.1-0.6 0.2-1.3 0.3-1.4 0-0.2 0.1-0.9 0.2-1.6 0-0.7 0.1-1.4 0.2-1.5 0.1-0.2 0.2-1.2 0.3-2.3 0.1-1.2 0.2-2.6 0.3-3.1 0-0.7 0.1-1.3 0.4-1.7q0.3-0.6 0.3-1.5c0-0.5 0.1-1.9 0.2-3 0-1.2 0.2-2.6 0.2-3.2 0.1-0.5 0.2-1.1 0.4-1.3 0.1-0.2 0.2-0.6 0.3-0.9 0.1-0.3 0.1-0.7 0.1-0.8 0-0.2 0.1-0.4 0.2-0.5 0.1-0.2 0.3-0.8 0.3-1.4 0.1-0.7 0.3-1.9 0.5-2.8 0.1-0.8 0.3-1.8 0.3-2.2 0-0.4 0.1-0.9 0.2-1.3 0.2-0.3 0.2-0.7 0.2-0.8 0-0.1 0.1-0.5 0.3-1 0.2-0.5 0.3-1.3 0.4-1.8 0-0.5 0.2-1 0.3-1.1 0.1-0.2 0.2-0.6 0.2-1 0-0.5 0.1-0.8 0.3-1 0.3-0.4 0.4-0.6 0.3-3 0-1.9 0-2.7 0.2-3 0.1-0.3 0.2-0.5 0.2-0.5 0-0.1 0-0.1-0.1-0.1-0.1 0-0.3 0.1-0.4 0.3zm94.3 32.9c0 0.1-0.2 0.1-0.4 0.1-0.2-0.1-0.4 0-0.5 0.2-0.1 0.2-0.1 0.5-0.1 0.6 0 0.2 0 0.2 0.3 0 0.2-0.1 0.5-0.4 0.7-0.6 0.1-0.3 0.2-0.5 0.2-0.5 0 0-0.1 0.1-0.2 0.2zm-2.6 2.9c-0.2 0.3-0.6 0.7-1 0.9-0.3 0.2-0.8 0.6-1.1 1-0.3 0.4-0.7 0.7-0.8 0.7-0.2 0.1-0.6 0.5-1 1-0.4 0.5-1 1-1.3 1.2-0.3 0.2-1 0.8-1.5 1.4-0.8 0.8-1.1 1.1-1.4 1.1-0.3 0-0.7 0.3-1.4 1.1-0.5 0.5-1.2 1.1-1.6 1.4-0.3 0.2-0.7 0.5-0.7 0.7-0.1 0.2-0.6 0.6-1.1 1-0.5 0.3-1.2 0.9-1.7 1.3-0.4 0.5-1.3 1.2-1.8 1.7-0.6 0.4-1.1 1-1.2 1.3-0.2 0.4-0.2 0.5 0.2 0.7 0.2 0.1 0.8 0.4 1.3 0.6 0.6 0.2 1.5 0.5 2 0.7 0.6 0.1 1.1 0.4 1.2 0.5 0.2 0.2 0.5 0.3 0.7 0.3 0.2 0 1 0.3 1.9 0.7 0.8 0.4 1.9 0.9 2.3 1.1 0.5 0.2 1.6 0.5 2.5 0.8 0.9 0.3 1.9 0.5 2.1 0.5 0.3 0 0.9 0.2 1.3 0.4 0.5 0.1 1 0.3 1.2 0.3 0.2 0 0.4-0.2 0.5-0.4 0.2-0.3 0.3-0.5 0.3-0.7 0-0.1 0-0.5 0.1-0.8 0.1-0.4 0.2-0.9 0.4-1.1 0.1-0.3 0.4-0.6 0.6-0.7 0.2-0.2 0.5-0.5 0.7-0.8 0.1-0.3 0.2-0.7 0.1-0.9 0-0.2 0.1-0.4 0.5-0.6 0.3-0.1 0.6-0.5 0.8-0.8 0.1-0.4 0.4-0.7 0.5-0.7 0.2 0 0.3 0 0.3-0.1 0 0 0.2-0.2 0.4-0.4 0.3-0.1 0.8-0.5 1.1-0.9 0.4-0.3 0.8-0.5 0.8-0.5 0.1 0 0.2-0.3 0.2-0.5 0-0.4-0.2-0.7-0.7-1.2-0.3-0.3-0.7-0.7-0.7-0.8-0.1-0.2-0.4-0.6-0.6-1-0.2-0.5-0.8-1.3-1.3-2-0.4-0.7-0.8-1.4-0.8-1.6-0.1-0.3-0.2-0.6-0.3-0.8-0.1-0.2-0.3-0.4-0.5-0.5-0.1 0-0.3-0.2-0.3-0.3-0.1-0.1-0.2-0.6-0.4-1-0.1-0.5-0.2-1.4-0.3-2.1 0-0.7 0.1-1.3 0.1-1.5 0-0.2 0-0.3-0.1-0.3 0 0-0.3 0.3-0.5 0.6zm134.7 12.2c-0.1 0.5-0.3 0.6-0.5 0.5-0.3-0.1-0.4 0-0.4 0.3 0 0.2-0.1 0.5-0.3 0.7-0.2 0.3-0.4 0.4-0.5 0.4-0.1 0-0.5 0.3-0.8 0.6-0.5 0.6-0.5 0.7-0.5 1.2 0.1 0.3 0.1 0.6 0 0.6-0.1 0.1-0.2 0.3-0.2 0.5 0 0.2 0.1 0.4 0.2 0.4 0.1 0 0.2 0.1 0.2 0.3 0.1 0.1-0.1 0.4-0.3 0.6-0.4 0.4-0.4 0.4-0.2 0.8 0.2 0.3 0.2 0.6 0.2 0.8-0.1 0.1 0 0.4 0.2 0.5 0.1 0.1 0.3 0.5 0.3 0.8 0.1 0.3 0.3 1 0.4 1.5 0.2 0.5 0.5 1.2 0.8 1.6 0.2 0.3 0.5 0.8 0.8 1.1 0.2 0.2 0.4 0.4 0.4 0.5 0 0.1 0.2 0.4 0.4 0.7q0.4 0.5 0.6 0.3c0.1-0.1 0.3-0.5 0.6-0.9 0.2-0.5 0.4-1 0.4-1.1 0-0.2 0.2-0.9 0.5-1.5 0.5-1 0.5-1.2 0.5-2.3-0.1-0.6 0-1.2 0-1.3 0.1-0.1 0.2-0.5 0.1-0.9 0-0.5 0-0.9-0.1-0.9-0.1 0-0.1-0.2-0.1-0.5 0.1-0.2 0.2-0.5 0.3-0.7 0.2-0.3 0.1-0.5 0-0.9-0.2-0.3-0.3-0.9-0.3-1.4-0.1-0.4-0.2-0.9-0.3-1 0-0.1-0.1-0.4 0-0.7 0-0.2 0-0.6-0.2-0.8-0.2-0.3-0.4-0.4-1.1-0.4-0.8 0-0.8 0.1-1.1 0.6zm-185.3 0.4c-0.2 0.1-0.4 0.5-0.5 0.8-0.2 0.2-0.3 0.6-0.2 0.7 0 0.1-0.2 0.4-0.4 0.6-0.2 0.3-0.4 0.6-0.4 0.8 0 0.2-0.1 0.6-0.2 0.8-0.2 0.3-0.3 0.9-0.4 1.3-0.1 0.4-0.3 1.1-0.4 1.5-0.1 0.4-0.2 1-0.3 1.3v0.6c0.6-0.8 1.1-1.6 1.5-2.3 0.3-0.8 0.7-1.9 0.9-2.6 0.1-0.7 0.4-1.8 0.7-2.5 0.2-0.7 0.4-1.2 0.4-1.3 0 0-0.1 0-0.3 0-0.1 0-0.3 0.1-0.4 0.3zm61.1 8.3c-0.2 0.4-0.4 1-0.4 1.2q0 0.5 0.5 1c0.3 0.4 0.5 0.8 0.6 1.3 0.1 0.4 0.2 0.8 0.4 0.9 0.1 0.1 0.2 0.3 0.2 0.5 0 0.2 0.1 0.4 0.3 0.5 0.1 0.1 0.3 0.5 0.3 1 0.1 0.8 0.1 1.1-0.3 1.9-0.3 0.5-0.6 1.1-0.8 1.2-0.2 0.1-0.5 0.6-0.7 0.9-0.3 0.6-0.6 0.8-1.3 1.2-0.8 0.5-0.9 0.6-0.9 1 0 0.3 0.1 0.7 0.2 0.9 0.1 0.2 0.7 1 1.5 1.9 1 1.1 1.4 1.5 1.9 1.6 0.3 0.1 0.7 0.3 1 0.5l0.4 0.4c0.9-0.5 1.3-0.9 1.4-1.2 0.2-0.2 0.4-0.9 0.5-1.5 0.1-0.9 0.1-1.2-0.1-1.6-0.2-0.4-0.2-0.5 0-0.8 0.1-0.2 0.1-0.8 0.2-1.4 0-0.6-0.1-1.7-0.2-2.4-0.1-0.7-0.2-1.3-0.3-1.3 0-0.1-0.1-0.4-0.1-0.7 0-0.3-0.1-0.6-0.1-0.6-0.1-0.1-0.3-0.4-0.4-0.9-0.1-0.4-0.4-1.2-0.6-1.7-0.2-0.4-0.4-0.9-0.4-1.1 0-0.1-0.2-0.3-0.4-0.5-0.3-0.1-0.4-0.4-0.4-0.7 0-0.3-0.2-0.7-0.4-0.9-0.3-0.3-0.4-0.6-0.4-0.9 0-0.4-0.1-0.5-0.4-0.5-0.4 0-0.5 0.1-0.8 0.8z"/>
	</g>
</svg>